0
SECTION
2
HEADER
9
$INSUNITS
70
1
9
$ACADVER
1
AC1014
9
$HANDSEED
5
FFFF
0
ENDSEC
0
SECTION
2
TABLES
0
TABLE
2
VPORT
5
8
100
AcDbSymbolTable
0
ENDTAB
0
TABLE
2
LTYPE
5
5
100
AcDbSymbolTable
0
LTYPE
5
14
100
AcDbSymbolTableRecord
100
AcDbLinetypeTableRecord
2
BYBLOCK
70
0
0
LTYPE
5
15
100
AcDbSymbolTableRecord
100
AcDbLinetypeTableRecord
2
BYLAYER
70
0
0
ENDTAB
0
TABLE
2
LAYER
5
2
100
AcDbSymbolTable
70
2
0
LAYER
5
50
100
AcDbSymbolTableRecord
100
AcDbLayerTableRecord
2
0
70
0
6
CONTINUOUS
0
ENDTAB
0
TABLE
2
STYLE
5
3
100
AcDbSymbolTable
70
1
0
STYLE
5
11
100
AcDbSymbolTableRecord
100
AcDbTextStyleTableRecord
2
STANDARD
70
0
0
ENDTAB
0
TABLE
2
VIEW
5
6
100
AcDbSymbolTable
70
0
0
ENDTAB
0
TABLE
2
UCS
5
7
100
AcDbSymbolTable
70
0
0
ENDTAB
0
TABLE
2
APPID
5
9
100
AcDbSymbolTable
70
2
0
APPID
5
12
100
AcDbSymbolTableRecord
100
AcDbRegAppTableRecord
2
ACAD
70
0
0
ENDTAB
0
TABLE
2
DIMSTYLE
5
A
100
AcDbSymbolTable
70
1
0
ENDTAB
0
TABLE
2
BLOCK_RECORD
5
1
100
AcDbSymbolTable
70
1
0
BLOCK_RECORD
5
1F
100
AcDbSymbolTableRecord
100
AcDbBlockTableRecord
2
*MODEL_SPACE
0
BLOCK_RECORD
5
1B
100
AcDbSymbolTableRecord
100
AcDbBlockTableRecord
2
*PAPER_SPACE
0
ENDTAB
0
ENDSEC
0
SECTION
2
BLOCKS
0
BLOCK
5
20
100
AcDbEntity
100
AcDbBlockBegin
2
*MODEL_SPACE
0
ENDBLK
5
21
100
AcDbEntity
100
AcDbBlockEnd
0
BLOCK
5
1C
100
AcDbEntity
100
AcDbBlockBegin
2
*PAPER_SPACE
0
ENDBLK
5
1D
100
AcDbEntity
100
AcDbBlockEnd
0
ENDSEC
0
SECTION
2
ENTITIES
0
LWPOLYLINE
5
100
100
AcDbEntity
8
0
100
AcDbPolyline
90
40
70
1
43
0.0
10
0.86178641732283467
20
-2.7827263779527556
42
0.41421356237309437
10
1.0192667322834645
20
-2.9402066929133857
10
1.5024114173228347
20
-2.9402066929133857
10
1.6037316311931478
20
-2.9402066929133857
42
-0.025557241777301801
10
1.6197991690670066
20
-2.9410285136045653
10
2.6609107512433199
20
-3.047809188700028
42
-0.43767773137631749
10
2.7997325308863266
20
-3.2329167412888502
10
2.7182554333239657
20
-3.6765142724625046
42
0.41313052976457421
10
2.8441229342975132
20
-3.8597463523463409
10
4.4255258525432701
20
-4.1562593995172197
42
0.04637017964155081
10
4.4545476690865877
20
-4.1589566929133861
10
5.2957800393700785
20
-4.1589566929133861
10
6.1639562679200983
20
-4.1589566929133861
42
0.04637017964155081
10
6.192978084463415
20
-4.1562593995172197
10
7.7743810027100748
20
-3.8597463523461712
42
0.41313052976457243
10
7.9002485036836232
20
-3.6765142724623345
10
7.8187714061213969
20
-3.2329167412894009
42
-0.43767773137631932
10
7.9575931857644022
20
-3.0478091887005774
10
8.9987047679460694
20
-2.9410285136045653
42
-0.025557241777299799
10
9.0147723058199265
20
-2.9402066929133857
10
9.11609251968504
20
-2.9402066929133857
10
9.5992372047244103
20
-2.9402066929133857
42
0.41421356237309509
10
9.75671751968504
20
-2.7827263779527556
10
9.75671751968504
20
-0.95706200787401552
42
0.41421356237309537
10
9.5992372047244103
20
-0.7995816929133861
10
9.1198399278153914
20
-0.79958169291338566
42
0.011896336972662694
10
9.1123493531042943
20
-0.79975993894103337
10
8.7922325781564492
20
-0.81500359489093765
42
0.013554414467796847
10
8.7837197330439238
20
-0.81564060660295545
10
5.8896984638733549
20
-1.1112664351737203
42
-0.025454855982115766
10
5.8736950440497306
20
-1.1120816929133857
10
5.2992864173228345
20
-1.1120816929133857
10
4.7448088929622934
20
-1.1120816929133857
42
-0.025454855982115766
10
4.7288054731386691
20
-1.1112664351737203
10
1.8347842039718532
20
-0.8156406066033387
42
0.013554414467793771
10
1.8262713588593271
20
-0.8150035948913209
10
1.506154583903436
20
-0.79975993894103337
42
0.011896336972708215
10
1.4986640091923384
20
-0.79958169291338566
10
1.0192667322834645
20
-0.79958169291338566
42
0.4142135623730947
10
0.86178641732283467
20
-0.95706200787401519
0
ENDSEC
0
SECTION
2
OBJECTS
0
DICTIONARY
5
C
100
AcDbDictionary
3
ACAD_GROUP
350
D
3
ACAD_MLINESTYLE
350
17
0
DICTIONARY
5
D
100
AcDbDictionary
0
DICTIONARY
5
1A
330
C
100
AcDbDictionary
0
DICTIONARY
5
17
100
AcDbDictionary
0
ENDSEC
0
EOF
