%TF.GenerationSoftware,KiCad,Pcbnew,8.0.4*%
%TF.CreationDate,2024-12-12T17:25:20-05:00*%
%TF.ProjectId,babier-v,62616269-6572-42d7-962e-6b696361645f,rev?*%
%TF.SameCoordinates,Original*%
%TF.FileFunction,Legend,Top*%
%TF.FilePolarity,Positive*%
%FSLAX46Y46*%
G04 Gerber Fmt 4.6, Leading zero omitted, Abs format (unit mm)*
G04 Created by KiCad (PCBNEW 8.0.4) date 2024-12-12 17:25:20*
%MOMM*%
%LPD*%
G01*
G04 APERTURE LIST*
%ADD10C,0.100000*%
%ADD11C,0.150000*%
G04 APERTURE END LIST*
D10*
G36*
X126019803Y-89375478D02*
G01*
X126025813Y-89473812D01*
X126028733Y-89578947D01*
X126029038Y-89627857D01*
X126029038Y-89904340D01*
X126097915Y-89854514D01*
X126173630Y-89822274D01*
X126271479Y-89806071D01*
X126291355Y-89805666D01*
X126400826Y-89812569D01*
X126499530Y-89833280D01*
X126614385Y-89882373D01*
X126710098Y-89956012D01*
X126786668Y-90054198D01*
X126831533Y-90143946D01*
X126865631Y-90247501D01*
X126888961Y-90364863D01*
X126901523Y-90496033D01*
X126903916Y-90591151D01*
X126899726Y-90695313D01*
X126885729Y-90799318D01*
X126874118Y-90851513D01*
X126842395Y-90948192D01*
X126794918Y-91040570D01*
X126783749Y-91057654D01*
X126717381Y-91132444D01*
X126632766Y-91189202D01*
X126620106Y-91195407D01*
X126523762Y-91228466D01*
X126421741Y-91242587D01*
X126379282Y-91243768D01*
X126278441Y-91235921D01*
X126175577Y-91208337D01*
X126083918Y-91160891D01*
X126029038Y-91118227D01*
X126018595Y-91218591D01*
X126013895Y-91251095D01*
X125787238Y-91224717D01*
X125800891Y-91117374D01*
X125809487Y-91013943D01*
X125813026Y-90914423D01*
X125813127Y-90894989D01*
X125813127Y-90861283D01*
X125813066Y-90760075D01*
X125812940Y-90662250D01*
X125812746Y-90545637D01*
X125812531Y-90434109D01*
X125812325Y-90335492D01*
X125812151Y-90256049D01*
X125812080Y-90190592D01*
X126029038Y-90190592D01*
X126029038Y-90805596D01*
X126086283Y-90891211D01*
X126153974Y-90965965D01*
X126175584Y-90982916D01*
X126267377Y-91020269D01*
X126370920Y-91030741D01*
X126379282Y-91030788D01*
X126483045Y-91016704D01*
X126570171Y-90969214D01*
X126617663Y-90911597D01*
X126657990Y-90816782D01*
X126678533Y-90720057D01*
X126687387Y-90619613D01*
X126688494Y-90564284D01*
X126682586Y-90436400D01*
X126664863Y-90325567D01*
X126635325Y-90231785D01*
X126581787Y-90138537D01*
X126509788Y-90071930D01*
X126419328Y-90031967D01*
X126310406Y-90018645D01*
X126264488Y-90024507D01*
X126224432Y-90035254D01*
X126183888Y-90055282D01*
X126150183Y-90076287D01*
X126115012Y-90105596D01*
X126085703Y-90132463D01*
X126054928Y-90163726D01*
X126029038Y-90190592D01*
X125812080Y-90190592D01*
X125812036Y-90150552D01*
X125811937Y-90052412D01*
X125811834Y-89940084D01*
X125811756Y-89839253D01*
X125811693Y-89733431D01*
X125811663Y-89630896D01*
X125811662Y-89618087D01*
X125809238Y-89514419D01*
X125802826Y-89406953D01*
X125793630Y-89299465D01*
X125791146Y-89274193D01*
X126009499Y-89274193D01*
X126019803Y-89375478D01*
G37*
G36*
X127874144Y-89812655D02*
G01*
X127981099Y-89837758D01*
X128075781Y-89881119D01*
X128158190Y-89942737D01*
X128167629Y-89951723D01*
X128233238Y-90030400D01*
X128280102Y-90120373D01*
X128308221Y-90221642D01*
X128317447Y-90319519D01*
X128317594Y-90334207D01*
X128317594Y-90793384D01*
X128319672Y-90897445D01*
X128335179Y-90995128D01*
X128360580Y-91020530D01*
X128404544Y-91054235D01*
X128444111Y-91084033D01*
X128329806Y-91249629D01*
X128287796Y-91218855D01*
X128241878Y-91183195D01*
X128206219Y-91145582D01*
X128171048Y-91089895D01*
X128151509Y-91017599D01*
X128079321Y-91083787D01*
X128061139Y-91098687D01*
X127979453Y-91154476D01*
X127956114Y-91168541D01*
X127864331Y-91209914D01*
X127810545Y-91225205D01*
X127708914Y-91240704D01*
X127633225Y-91243768D01*
X127529288Y-91231508D01*
X127435465Y-91194728D01*
X127351754Y-91133429D01*
X127336226Y-91118227D01*
X127271826Y-91034993D01*
X127231278Y-90942219D01*
X127214582Y-90839904D01*
X127214104Y-90818296D01*
X127215214Y-90808527D01*
X127428550Y-90808527D01*
X127443853Y-90907018D01*
X127482772Y-90972169D01*
X127566959Y-91022545D01*
X127633225Y-91030788D01*
X127732105Y-91021629D01*
X127789052Y-91007340D01*
X127883059Y-90970354D01*
X127912151Y-90954095D01*
X127990976Y-90893946D01*
X128004963Y-90880823D01*
X128067489Y-90814389D01*
X128101683Y-90764075D01*
X128101683Y-90636091D01*
X128008861Y-90590754D01*
X127908693Y-90562208D01*
X127801178Y-90550454D01*
X127778794Y-90550118D01*
X127675662Y-90560147D01*
X127577580Y-90593647D01*
X127530643Y-90621437D01*
X127460853Y-90692349D01*
X127429447Y-90787210D01*
X127428550Y-90808527D01*
X127215214Y-90808527D01*
X127225298Y-90719810D01*
X127245856Y-90651234D01*
X127290232Y-90562792D01*
X127336714Y-90504689D01*
X127413185Y-90437601D01*
X127499685Y-90386631D01*
X127531620Y-90373774D01*
X127627604Y-90348730D01*
X127727113Y-90338032D01*
X127768047Y-90337138D01*
X127871331Y-90341840D01*
X127971688Y-90358369D01*
X128071572Y-90394734D01*
X128101683Y-90412365D01*
X128095539Y-90306835D01*
X128074302Y-90209519D01*
X128028792Y-90120447D01*
X128024014Y-90114389D01*
X127945187Y-90052399D01*
X127844517Y-90023227D01*
X127773421Y-90018645D01*
X127672693Y-90025309D01*
X127573639Y-90052378D01*
X127547252Y-90066028D01*
X127472984Y-90132239D01*
X127412797Y-90216583D01*
X127387517Y-90259957D01*
X127208731Y-90146140D01*
X127258740Y-90060686D01*
X127321277Y-89980388D01*
X127398556Y-89910836D01*
X127440273Y-89883823D01*
X127531292Y-89842607D01*
X127633378Y-89816657D01*
X127734718Y-89806353D01*
X127770490Y-89805666D01*
X127874144Y-89812655D01*
G37*
G36*
X128915546Y-89375478D02*
G01*
X128921557Y-89473812D01*
X128924476Y-89578947D01*
X128924781Y-89627857D01*
X128924781Y-89904340D01*
X128993658Y-89854514D01*
X129069373Y-89822274D01*
X129167222Y-89806071D01*
X129187098Y-89805666D01*
X129296570Y-89812569D01*
X129395273Y-89833280D01*
X129510128Y-89882373D01*
X129605841Y-89956012D01*
X129682411Y-90054198D01*
X129727277Y-90143946D01*
X129761374Y-90247501D01*
X129784704Y-90364863D01*
X129797266Y-90496033D01*
X129799659Y-90591151D01*
X129795469Y-90695313D01*
X129781472Y-90799318D01*
X129769862Y-90851513D01*
X129738139Y-90948192D01*
X129690662Y-91040570D01*
X129679492Y-91057654D01*
X129613124Y-91132444D01*
X129528510Y-91189202D01*
X129515849Y-91195407D01*
X129419505Y-91228466D01*
X129317484Y-91242587D01*
X129275026Y-91243768D01*
X129174184Y-91235921D01*
X129071320Y-91208337D01*
X128979662Y-91160891D01*
X128924781Y-91118227D01*
X128914338Y-91218591D01*
X128909638Y-91251095D01*
X128682981Y-91224717D01*
X128696634Y-91117374D01*
X128705230Y-91013943D01*
X128708770Y-90914423D01*
X128708871Y-90894989D01*
X128708871Y-90861283D01*
X128708810Y-90760075D01*
X128708684Y-90662250D01*
X128708489Y-90545637D01*
X128708274Y-90434109D01*
X128708068Y-90335492D01*
X128707894Y-90256049D01*
X128707823Y-90190592D01*
X128924781Y-90190592D01*
X128924781Y-90805596D01*
X128982026Y-90891211D01*
X129049717Y-90965965D01*
X129071327Y-90982916D01*
X129163120Y-91020269D01*
X129266664Y-91030741D01*
X129275026Y-91030788D01*
X129378788Y-91016704D01*
X129465914Y-90969214D01*
X129513407Y-90911597D01*
X129553733Y-90816782D01*
X129574277Y-90720057D01*
X129583130Y-90619613D01*
X129584237Y-90564284D01*
X129578329Y-90436400D01*
X129560607Y-90325567D01*
X129531068Y-90231785D01*
X129477531Y-90138537D01*
X129405531Y-90071930D01*
X129315071Y-90031967D01*
X129206149Y-90018645D01*
X129160231Y-90024507D01*
X129120176Y-90035254D01*
X129079631Y-90055282D01*
X129045926Y-90076287D01*
X129010755Y-90105596D01*
X128981446Y-90132463D01*
X128950671Y-90163726D01*
X128924781Y-90190592D01*
X128707823Y-90190592D01*
X128707779Y-90150552D01*
X128707680Y-90052412D01*
X128707577Y-89940084D01*
X128707499Y-89839253D01*
X128707436Y-89733431D01*
X128707406Y-89630896D01*
X128707405Y-89618087D01*
X128704981Y-89514419D01*
X128698570Y-89406953D01*
X128689373Y-89299465D01*
X128686889Y-89274193D01*
X128905242Y-89274193D01*
X128915546Y-89375478D01*
G37*
G36*
X130432737Y-89274193D02*
G01*
X130755626Y-89274193D01*
X130755626Y-89586824D01*
X130432737Y-89586824D01*
X130432737Y-89274193D01*
G37*
G36*
X130575863Y-89842791D02*
G01*
X130735109Y-89842791D01*
X130736575Y-90944326D01*
X130771837Y-91036596D01*
X130781515Y-91042511D01*
X130880617Y-91060830D01*
X130930015Y-91062051D01*
X131031302Y-91056577D01*
X131133662Y-91040155D01*
X131147391Y-91037138D01*
X131240771Y-91008065D01*
X131323246Y-90962400D01*
X131416547Y-91125554D01*
X131334201Y-91183270D01*
X131241160Y-91224640D01*
X131201125Y-91237417D01*
X131101382Y-91260338D01*
X130999991Y-91272680D01*
X130931481Y-91275031D01*
X130824453Y-91269879D01*
X130726777Y-91252310D01*
X130650113Y-91222274D01*
X130572123Y-91152367D01*
X130532253Y-91059441D01*
X130522130Y-90962888D01*
X130522130Y-90055770D01*
X130418081Y-90059287D01*
X130317509Y-90069835D01*
X130220416Y-90087416D01*
X130167977Y-90100222D01*
X130127922Y-89902386D01*
X130234340Y-89879165D01*
X130336038Y-89861647D01*
X130446481Y-89848610D01*
X130550758Y-89843023D01*
X130575863Y-89842791D01*
G37*
G36*
X132252224Y-89813481D02*
G01*
X132344181Y-89836929D01*
X132433122Y-89877509D01*
X132489261Y-89916552D01*
X132559025Y-89988429D01*
X132590867Y-90033300D01*
X132639733Y-90122438D01*
X132658278Y-90168122D01*
X132686131Y-90263184D01*
X132695891Y-90309294D01*
X132711405Y-90405825D01*
X132714453Y-90437278D01*
X132718845Y-90537172D01*
X132718850Y-90540348D01*
X132717384Y-90601409D01*
X132604766Y-90609004D01*
X132497171Y-90615852D01*
X132394599Y-90621952D01*
X132265650Y-90628925D01*
X132145631Y-90634569D01*
X132034543Y-90638885D01*
X131932384Y-90641873D01*
X131817244Y-90643741D01*
X131775095Y-90643907D01*
X131784827Y-90743675D01*
X131818012Y-90839865D01*
X131874746Y-90921855D01*
X131954974Y-90983875D01*
X132048244Y-91017916D01*
X132148747Y-91030362D01*
X132173211Y-91030788D01*
X132273601Y-91021920D01*
X132372605Y-90989648D01*
X132395961Y-90977054D01*
X132477171Y-90919047D01*
X132539087Y-90852490D01*
X132707615Y-90998059D01*
X132660231Y-91049350D01*
X132588913Y-91109922D01*
X132505383Y-91164829D01*
X132482423Y-91176356D01*
X132390380Y-91209952D01*
X132345158Y-91222274D01*
X132247219Y-91239654D01*
X132167838Y-91243768D01*
X132061077Y-91236812D01*
X131964277Y-91215947D01*
X131863932Y-91174022D01*
X131777145Y-91113164D01*
X131713546Y-91045931D01*
X131652828Y-90952502D01*
X131612654Y-90861815D01*
X131583437Y-90761340D01*
X131565176Y-90651075D01*
X131558328Y-90551711D01*
X131557719Y-90510062D01*
X131561555Y-90430927D01*
X131775095Y-90430927D01*
X131882280Y-90430370D01*
X131984747Y-90428699D01*
X132082498Y-90425913D01*
X132198053Y-90420863D01*
X132306238Y-90414073D01*
X132407052Y-90405541D01*
X132500497Y-90395268D01*
X132482388Y-90294623D01*
X132444618Y-90199671D01*
X132388145Y-90121227D01*
X132310178Y-90058716D01*
X132210985Y-90023554D01*
X132151229Y-90018645D01*
X132052034Y-90030428D01*
X131957796Y-90070608D01*
X131879143Y-90139301D01*
X131820566Y-90228198D01*
X131785886Y-90328985D01*
X131775095Y-90430927D01*
X131561555Y-90430927D01*
X131563180Y-90397411D01*
X131579564Y-90292831D01*
X131606869Y-90196323D01*
X131652530Y-90093931D01*
X131713058Y-90002525D01*
X131787072Y-89925819D01*
X131873195Y-89867953D01*
X131971426Y-89828927D01*
X132081765Y-89808742D01*
X132150252Y-89805666D01*
X132252224Y-89813481D01*
G37*
G36*
X133407126Y-90004968D02*
G01*
X133479781Y-89931443D01*
X133564536Y-89872721D01*
X133612779Y-89850118D01*
X133713087Y-89821337D01*
X133811440Y-89808444D01*
X133890727Y-89805666D01*
X133991178Y-89817903D01*
X134079679Y-89863918D01*
X134117873Y-89909225D01*
X134156868Y-90000747D01*
X134175615Y-90098740D01*
X134181802Y-90203819D01*
X134181864Y-90216482D01*
X133967419Y-90216482D01*
X133965954Y-90171053D01*
X133964000Y-90127578D01*
X133960092Y-90091918D01*
X133948857Y-90060167D01*
X133928829Y-90039162D01*
X133897077Y-90023042D01*
X133852137Y-90018645D01*
X133753936Y-90029865D01*
X133740762Y-90033300D01*
X133650022Y-90071154D01*
X133627433Y-90084102D01*
X133548764Y-90150069D01*
X133508731Y-90198897D01*
X133453044Y-90285969D01*
X133407523Y-90377585D01*
X133401264Y-90391848D01*
X133401264Y-91243768D01*
X133187308Y-91243768D01*
X133187308Y-90162260D01*
X133185842Y-90138324D01*
X133179003Y-90115366D01*
X133169722Y-90094849D01*
X133156044Y-90073844D01*
X133140901Y-90055282D01*
X133121362Y-90034765D01*
X133099380Y-90015226D01*
X133073979Y-89992756D01*
X133047112Y-89969308D01*
X133189750Y-89776356D01*
X133230294Y-89807620D01*
X133273770Y-89840837D01*
X133309917Y-89872100D01*
X133348019Y-89910690D01*
X133377817Y-89952700D01*
X133407126Y-90004968D01*
G37*
G36*
X134555556Y-90405526D02*
G01*
X135636575Y-90405526D01*
X135636575Y-90618506D01*
X134555556Y-90618506D01*
X134555556Y-90405526D01*
G37*
G36*
X136004405Y-89789546D02*
G01*
X136069114Y-89865847D01*
X136104056Y-89918994D01*
X136145529Y-90007481D01*
X136166582Y-90064075D01*
X136203145Y-90161799D01*
X136237293Y-90253436D01*
X136264279Y-90325903D01*
X136303462Y-90432055D01*
X136339372Y-90531241D01*
X136372010Y-90623461D01*
X136405303Y-90720326D01*
X136416686Y-90754305D01*
X136448524Y-90854015D01*
X136474651Y-90950405D01*
X136482632Y-90995128D01*
X136546929Y-90911200D01*
X136600484Y-90826694D01*
X136651515Y-90731855D01*
X136693246Y-90642342D01*
X136720036Y-90578450D01*
X136756249Y-90481936D01*
X136789555Y-90374024D01*
X136813230Y-90271162D01*
X136827275Y-90173348D01*
X136831411Y-90106573D01*
X136832825Y-90005662D01*
X136832876Y-89971751D01*
X136832015Y-89871198D01*
X136830434Y-89836929D01*
X137039017Y-89836929D01*
X137044547Y-89940055D01*
X137045749Y-90050374D01*
X137045856Y-90105107D01*
X137039371Y-90213536D01*
X137024511Y-90310680D01*
X137001063Y-90411705D01*
X136969029Y-90516611D01*
X136928409Y-90625399D01*
X136920804Y-90643907D01*
X136881312Y-90734370D01*
X136831624Y-90836723D01*
X136779429Y-90932310D01*
X136724726Y-91021130D01*
X136667516Y-91103184D01*
X136637970Y-91141674D01*
X136562026Y-91205406D01*
X136508033Y-91225694D01*
X136410937Y-91239796D01*
X136306752Y-91243750D01*
X136298473Y-91243768D01*
X136285736Y-91138762D01*
X136261663Y-91034036D01*
X136231095Y-90923807D01*
X136198616Y-90817518D01*
X136168047Y-90723042D01*
X136135914Y-90626619D01*
X136097078Y-90512424D01*
X136059722Y-90405265D01*
X136023844Y-90305142D01*
X135989445Y-90212055D01*
X135950118Y-90109639D01*
X135937482Y-90077752D01*
X135891076Y-90001060D01*
X135829202Y-89923023D01*
X135827573Y-89921437D01*
X136004405Y-89789546D01*
G37*
G36*
X126019803Y-92735478D02*
G01*
X126025813Y-92833812D01*
X126028733Y-92938947D01*
X126029038Y-92987857D01*
X126029038Y-93264340D01*
X126097915Y-93214514D01*
X126173630Y-93182274D01*
X126271479Y-93166071D01*
X126291355Y-93165666D01*
X126400826Y-93172569D01*
X126499530Y-93193280D01*
X126614385Y-93242373D01*
X126710098Y-93316012D01*
X126786668Y-93414198D01*
X126831533Y-93503946D01*
X126865631Y-93607501D01*
X126888961Y-93724863D01*
X126901523Y-93856033D01*
X126903916Y-93951151D01*
X126899726Y-94055313D01*
X126885729Y-94159318D01*
X126874118Y-94211513D01*
X126842395Y-94308192D01*
X126794918Y-94400570D01*
X126783749Y-94417654D01*
X126717381Y-94492444D01*
X126632766Y-94549202D01*
X126620106Y-94555407D01*
X126523762Y-94588466D01*
X126421741Y-94602587D01*
X126379282Y-94603768D01*
X126278441Y-94595921D01*
X126175577Y-94568337D01*
X126083918Y-94520891D01*
X126029038Y-94478227D01*
X126018595Y-94578591D01*
X126013895Y-94611095D01*
X125787238Y-94584717D01*
X125800891Y-94477374D01*
X125809487Y-94373943D01*
X125813026Y-94274423D01*
X125813127Y-94254989D01*
X125813127Y-94221283D01*
X125813066Y-94120075D01*
X125812940Y-94022250D01*
X125812746Y-93905637D01*
X125812531Y-93794109D01*
X125812325Y-93695492D01*
X125812151Y-93616049D01*
X125812080Y-93550592D01*
X126029038Y-93550592D01*
X126029038Y-94165596D01*
X126086283Y-94251211D01*
X126153974Y-94325965D01*
X126175584Y-94342916D01*
X126267377Y-94380269D01*
X126370920Y-94390741D01*
X126379282Y-94390788D01*
X126483045Y-94376704D01*
X126570171Y-94329214D01*
X126617663Y-94271597D01*
X126657990Y-94176782D01*
X126678533Y-94080057D01*
X126687387Y-93979613D01*
X126688494Y-93924284D01*
X126682586Y-93796400D01*
X126664863Y-93685567D01*
X126635325Y-93591785D01*
X126581787Y-93498537D01*
X126509788Y-93431930D01*
X126419328Y-93391967D01*
X126310406Y-93378645D01*
X126264488Y-93384507D01*
X126224432Y-93395254D01*
X126183888Y-93415282D01*
X126150183Y-93436287D01*
X126115012Y-93465596D01*
X126085703Y-93492463D01*
X126054928Y-93523726D01*
X126029038Y-93550592D01*
X125812080Y-93550592D01*
X125812036Y-93510552D01*
X125811937Y-93412412D01*
X125811834Y-93300084D01*
X125811756Y-93199253D01*
X125811693Y-93093431D01*
X125811663Y-92990896D01*
X125811662Y-92978087D01*
X125809238Y-92874419D01*
X125802826Y-92766953D01*
X125793630Y-92659465D01*
X125791146Y-92634193D01*
X126009499Y-92634193D01*
X126019803Y-92735478D01*
G37*
G36*
X127568745Y-94953523D02*
G01*
X127614174Y-94944731D01*
X127655696Y-94917375D01*
X127692332Y-94879762D01*
X127725061Y-94827982D01*
X127753393Y-94772295D01*
X127780259Y-94709280D01*
X127802241Y-94648708D01*
X127822758Y-94587159D01*
X127840832Y-94533426D01*
X127810784Y-94425764D01*
X127780725Y-94323209D01*
X127750654Y-94225760D01*
X127705527Y-94089160D01*
X127660374Y-93964050D01*
X127615196Y-93850428D01*
X127569991Y-93748295D01*
X127524761Y-93657652D01*
X127464414Y-93554665D01*
X127404021Y-93472104D01*
X127358696Y-93423586D01*
X127266972Y-93383034D01*
X127207266Y-93378645D01*
X127207266Y-93165666D01*
X127307273Y-93170715D01*
X127360162Y-93177389D01*
X127465154Y-93227255D01*
X127537419Y-93297994D01*
X127611501Y-93398729D01*
X127668254Y-93493965D01*
X127726030Y-93606074D01*
X127784827Y-93735055D01*
X127824593Y-93830417D01*
X127864813Y-93933277D01*
X127905487Y-94043637D01*
X127946615Y-94161496D01*
X127967349Y-94223237D01*
X127996899Y-94128309D01*
X128024731Y-94030736D01*
X128050846Y-93930518D01*
X128075244Y-93827655D01*
X128097924Y-93722148D01*
X128105102Y-93686391D01*
X128124817Y-93580569D01*
X128141098Y-93478525D01*
X128153943Y-93380260D01*
X128164589Y-93270391D01*
X128170559Y-93165666D01*
X128387447Y-93165666D01*
X128384303Y-93266917D01*
X128373884Y-93370728D01*
X128368396Y-93406489D01*
X128342636Y-93544677D01*
X128314266Y-93681903D01*
X128283285Y-93818168D01*
X128249694Y-93953471D01*
X128213493Y-94087812D01*
X128174681Y-94221192D01*
X128133259Y-94353609D01*
X128089227Y-94485065D01*
X128042584Y-94615560D01*
X127993331Y-94745093D01*
X127959045Y-94830913D01*
X127918325Y-94924203D01*
X127866922Y-95010292D01*
X127808592Y-95079064D01*
X127726534Y-95135677D01*
X127626417Y-95163429D01*
X127574118Y-95166503D01*
X127461819Y-95153468D01*
X127368554Y-95114363D01*
X127294322Y-95049188D01*
X127239124Y-94957943D01*
X127202960Y-94840627D01*
X127187733Y-94728005D01*
X127184307Y-94632588D01*
X127398264Y-94632588D01*
X127402271Y-94735657D01*
X127419461Y-94836412D01*
X127439296Y-94884158D01*
X127518322Y-94946749D01*
X127568745Y-94953523D01*
G37*
G36*
X130389253Y-93293956D02*
G01*
X130391704Y-93328331D01*
X130476089Y-93267645D01*
X130571526Y-93226820D01*
X130678013Y-93205855D01*
X130741948Y-93202791D01*
X130852948Y-93211112D01*
X130950438Y-93236076D01*
X131045311Y-93284986D01*
X131122538Y-93355633D01*
X131139087Y-93376691D01*
X131195080Y-93470939D01*
X131230950Y-93565777D01*
X131254572Y-93672162D01*
X131265071Y-93772540D01*
X131267070Y-93844172D01*
X131261622Y-93979920D01*
X131245277Y-94102316D01*
X131218036Y-94211359D01*
X131179898Y-94307051D01*
X131112098Y-94413869D01*
X131024926Y-94496949D01*
X130918383Y-94556293D01*
X130792468Y-94591899D01*
X130685320Y-94603026D01*
X130647182Y-94603768D01*
X130598822Y-94603768D01*
X130559255Y-94601325D01*
X130522618Y-94591555D01*
X130493309Y-94581297D01*
X130464977Y-94567620D01*
X130440064Y-94553942D01*
X130414663Y-94537333D01*
X130391704Y-94521213D01*
X130391704Y-94814305D01*
X130394301Y-94914766D01*
X130400291Y-95013019D01*
X130408534Y-95112487D01*
X130413686Y-95166503D01*
X130195333Y-95166503D01*
X130185029Y-95063597D01*
X130179018Y-94963639D01*
X130176099Y-94856727D01*
X130175793Y-94806978D01*
X130177189Y-93640474D01*
X130391704Y-93640474D01*
X130391704Y-94234961D01*
X130466198Y-94304082D01*
X130516756Y-94344382D01*
X130608576Y-94384262D01*
X130666233Y-94390788D01*
X130777125Y-94378087D01*
X130869222Y-94339983D01*
X130954928Y-94260728D01*
X131005675Y-94166740D01*
X131037627Y-94047350D01*
X131049656Y-93933548D01*
X131051160Y-93870550D01*
X131046763Y-93765251D01*
X131031307Y-93663066D01*
X131001082Y-93569738D01*
X130980818Y-93531053D01*
X130907938Y-93456412D01*
X130812042Y-93421287D01*
X130743414Y-93415770D01*
X130643640Y-93424553D01*
X130588075Y-93440683D01*
X130501924Y-93493594D01*
X130485982Y-93509560D01*
X130423999Y-93590328D01*
X130391704Y-93640474D01*
X130177189Y-93640474D01*
X130177259Y-93582344D01*
X130177259Y-93549127D01*
X130174199Y-93442201D01*
X130166109Y-93340687D01*
X130152962Y-93235071D01*
X130151369Y-93224284D01*
X130376561Y-93195952D01*
X130389253Y-93293956D01*
G37*
G36*
X131880608Y-92634193D02*
G01*
X132203497Y-92634193D01*
X132203497Y-92946824D01*
X131880608Y-92946824D01*
X131880608Y-92634193D01*
G37*
G36*
X132023735Y-93202791D02*
G01*
X132182981Y-93202791D01*
X132184446Y-94304326D01*
X132219709Y-94396596D01*
X132229387Y-94402511D01*
X132328489Y-94420830D01*
X132377887Y-94422051D01*
X132479174Y-94416577D01*
X132581534Y-94400155D01*
X132595263Y-94397138D01*
X132688643Y-94368065D01*
X132771118Y-94322400D01*
X132864418Y-94485554D01*
X132782072Y-94543270D01*
X132689032Y-94584640D01*
X132648996Y-94597417D01*
X132549254Y-94620338D01*
X132447862Y-94632680D01*
X132379352Y-94635031D01*
X132272324Y-94629879D01*
X132174649Y-94612310D01*
X132097984Y-94582274D01*
X132019995Y-94512367D01*
X131980125Y-94419441D01*
X131970001Y-94322888D01*
X131970001Y-93415770D01*
X131865952Y-93419287D01*
X131765381Y-93429835D01*
X131668287Y-93447416D01*
X131615849Y-93460222D01*
X131575793Y-93262386D01*
X131682212Y-93239165D01*
X131783909Y-93221647D01*
X131894353Y-93208610D01*
X131998629Y-93203023D01*
X132023735Y-93202791D01*
G37*
G36*
X134080259Y-93389392D02*
G01*
X134030640Y-93473954D01*
X133979530Y-93557750D01*
X133925945Y-93643526D01*
X133919548Y-93653663D01*
X133863618Y-93740757D01*
X133806279Y-93827196D01*
X133749045Y-93909717D01*
X133739296Y-93923307D01*
X133797926Y-94006237D01*
X133853727Y-94088624D01*
X133858487Y-94095742D01*
X133913213Y-94176892D01*
X133969072Y-94259065D01*
X133990378Y-94290160D01*
X134049271Y-94369478D01*
X134058278Y-94378087D01*
X134132527Y-94390788D01*
X134203846Y-94382483D01*
X134203846Y-94595463D01*
X134118850Y-94603768D01*
X134018696Y-94583963D01*
X133953742Y-94547592D01*
X133881934Y-94480593D01*
X133869722Y-94466503D01*
X133807656Y-94387771D01*
X133783260Y-94353663D01*
X133727504Y-94271002D01*
X133685074Y-94207117D01*
X133629710Y-94124083D01*
X133596659Y-94076691D01*
X133536747Y-94155174D01*
X133466187Y-94245540D01*
X133399254Y-94329923D01*
X133324927Y-94422558D01*
X133260142Y-94502609D01*
X133190624Y-94587941D01*
X133154091Y-94632588D01*
X132988005Y-94491416D01*
X133047845Y-94413357D01*
X133064209Y-94392253D01*
X133128227Y-94310270D01*
X133194360Y-94226290D01*
X133249345Y-94156803D01*
X133313157Y-94076732D01*
X133380343Y-93992659D01*
X133443617Y-93913739D01*
X133461836Y-93891067D01*
X133392165Y-93791400D01*
X133322065Y-93692066D01*
X133251535Y-93593067D01*
X133180576Y-93494401D01*
X133109187Y-93396070D01*
X133037369Y-93298072D01*
X133008522Y-93258966D01*
X133187308Y-93108024D01*
X133249059Y-93193878D01*
X133311669Y-93281935D01*
X133372413Y-93368051D01*
X133428908Y-93448600D01*
X133448647Y-93476831D01*
X133511148Y-93566049D01*
X133569181Y-93649022D01*
X133610336Y-93708373D01*
X133674122Y-93623953D01*
X133730626Y-93539968D01*
X133783857Y-93455217D01*
X133841520Y-93358686D01*
X133882423Y-93287787D01*
X133921098Y-93195051D01*
X133928829Y-93165666D01*
X134146205Y-93165666D01*
X134129146Y-93263989D01*
X134097610Y-93356820D01*
X134080259Y-93389392D01*
G37*
G36*
X134916547Y-92634193D02*
G01*
X135075793Y-92634193D01*
X135076068Y-92738515D01*
X135076411Y-92868918D01*
X135076759Y-93000951D01*
X135077034Y-93105273D01*
X135077343Y-93222636D01*
X135077687Y-93353039D01*
X135078064Y-93496482D01*
X135078477Y-93652965D01*
X135078923Y-93822489D01*
X135079404Y-94005052D01*
X135079919Y-94200657D01*
X135080190Y-94303349D01*
X135115452Y-94396100D01*
X135125130Y-94402023D01*
X135224232Y-94420799D01*
X135273630Y-94422051D01*
X135374917Y-94416577D01*
X135477277Y-94400155D01*
X135491006Y-94397138D01*
X135584386Y-94368065D01*
X135666861Y-94322400D01*
X135760162Y-94485065D01*
X135677816Y-94543115D01*
X135584775Y-94584628D01*
X135544739Y-94597417D01*
X135444997Y-94620338D01*
X135343606Y-94632680D01*
X135275095Y-94635031D01*
X135168067Y-94629879D01*
X135070392Y-94612310D01*
X134993728Y-94582274D01*
X134915738Y-94512367D01*
X134875868Y-94419441D01*
X134865744Y-94322888D01*
X134861836Y-92847173D01*
X134817384Y-92847173D01*
X134760231Y-92847173D01*
X134657283Y-92851791D01*
X134560643Y-92867361D01*
X134498892Y-92886252D01*
X134460301Y-92674737D01*
X134563736Y-92655138D01*
X134672027Y-92643102D01*
X134779405Y-92636727D01*
X134880819Y-92634352D01*
X134916547Y-92634193D01*
G37*
G36*
X136162674Y-93803628D02*
G01*
X136078696Y-93737682D01*
X136025822Y-93647313D01*
X136004827Y-93545097D01*
X136003428Y-93506629D01*
X136016966Y-93409103D01*
X136061721Y-93320559D01*
X136137761Y-93251639D01*
X136227263Y-93206302D01*
X136329072Y-93177756D01*
X136431223Y-93166421D01*
X136467489Y-93165666D01*
X136567253Y-93171726D01*
X136668402Y-93189909D01*
X136761557Y-93216957D01*
X136856173Y-93257771D01*
X136940036Y-93315725D01*
X136989680Y-93368387D01*
X136834342Y-93527634D01*
X136758899Y-93462203D01*
X136679492Y-93421144D01*
X136581062Y-93389270D01*
X136487028Y-93378645D01*
X136386242Y-93386051D01*
X136294077Y-93412351D01*
X136222449Y-93483036D01*
X136218850Y-93509560D01*
X136238878Y-93586252D01*
X136301404Y-93633635D01*
X136396212Y-93671916D01*
X136438668Y-93687857D01*
X136531573Y-93721256D01*
X136572513Y-93735728D01*
X136665190Y-93771029D01*
X136693169Y-93782623D01*
X136782626Y-93824006D01*
X136803079Y-93835380D01*
X136884935Y-93891933D01*
X136893448Y-93898883D01*
X136960544Y-93971871D01*
X136965744Y-93979971D01*
X137005614Y-94071926D01*
X137008731Y-94083042D01*
X137024302Y-94179854D01*
X137025340Y-94215421D01*
X137014777Y-94316864D01*
X136979159Y-94412256D01*
X136935947Y-94473342D01*
X136857430Y-94543741D01*
X136767143Y-94592212D01*
X136721502Y-94607187D01*
X136618118Y-94626221D01*
X136513987Y-94634596D01*
X136484097Y-94635031D01*
X136376957Y-94628743D01*
X136268994Y-94606158D01*
X136176480Y-94567148D01*
X136090867Y-94503628D01*
X136025930Y-94421600D01*
X135982245Y-94323342D01*
X135961256Y-94222378D01*
X135956533Y-94138241D01*
X136171955Y-94138241D01*
X136186681Y-94248827D01*
X136239575Y-94341952D01*
X136330937Y-94399601D01*
X136442435Y-94420942D01*
X136479701Y-94422051D01*
X136577314Y-94413808D01*
X136676784Y-94383354D01*
X136714663Y-94363433D01*
X136787936Y-94291992D01*
X136812360Y-94195882D01*
X136786688Y-94099123D01*
X136785005Y-94096719D01*
X136713109Y-94025119D01*
X136694146Y-94010257D01*
X136600601Y-93962874D01*
X136504183Y-93927306D01*
X136432318Y-93903768D01*
X136338529Y-93872962D01*
X136246022Y-93839866D01*
X136162674Y-93803628D01*
G37*
G36*
X137793239Y-94228610D02*
G01*
X138138110Y-94228610D01*
X138147391Y-94593998D01*
X138147391Y-94597906D01*
X138138984Y-94716602D01*
X138113760Y-94823563D01*
X138071721Y-94918789D01*
X138012867Y-95002280D01*
X137937197Y-95074036D01*
X137844711Y-95134057D01*
X137803009Y-95154779D01*
X137718989Y-94962316D01*
X137800334Y-94904556D01*
X137865535Y-94824563D01*
X137901805Y-94728087D01*
X137913470Y-94629198D01*
X137913895Y-94603768D01*
X137793239Y-94603768D01*
X137793239Y-94228610D01*
G37*
G36*
X140551718Y-93418701D02*
G01*
X140345577Y-93469504D01*
X140323710Y-93372761D01*
X140317733Y-93312700D01*
X140317245Y-93294626D01*
X140316756Y-93277529D01*
X140325671Y-93170825D01*
X140352416Y-93075906D01*
X140403815Y-92983209D01*
X140459394Y-92921423D01*
X140545428Y-92858139D01*
X140642513Y-92815566D01*
X140738089Y-92795111D01*
X140815500Y-92790509D01*
X140933996Y-92798721D01*
X141036693Y-92823359D01*
X141142845Y-92877255D01*
X141224311Y-92956815D01*
X141281090Y-93062040D01*
X141308740Y-93164698D01*
X141320589Y-93283782D01*
X141321083Y-93316119D01*
X141307405Y-93425693D01*
X141272998Y-93523423D01*
X141217646Y-93622883D01*
X141153532Y-93709510D01*
X141102241Y-93767968D01*
X141028883Y-93836955D01*
X140950528Y-93905964D01*
X140899031Y-93950174D01*
X140823022Y-94015518D01*
X140746074Y-94084049D01*
X140682144Y-94144591D01*
X140616662Y-94220033D01*
X140580050Y-94278925D01*
X140545446Y-94373311D01*
X140543414Y-94390788D01*
X141346973Y-94390788D01*
X141346973Y-94603768D01*
X140304056Y-94603768D01*
X140302590Y-94538799D01*
X140301613Y-94471388D01*
X140307525Y-94373796D01*
X140309917Y-94358548D01*
X140338585Y-94256393D01*
X140387465Y-94156559D01*
X140446813Y-94071107D01*
X140521636Y-93987432D01*
X140545856Y-93963851D01*
X140620856Y-93896719D01*
X140695658Y-93833739D01*
X140750532Y-93788973D01*
X140831971Y-93722053D01*
X140908908Y-93655081D01*
X140936156Y-93629239D01*
X141005155Y-93552180D01*
X141057789Y-93468527D01*
X141093733Y-93377113D01*
X141102241Y-93315631D01*
X141091035Y-93214299D01*
X141053903Y-93121761D01*
X141034342Y-93092881D01*
X140954801Y-93028717D01*
X140851898Y-93004274D01*
X140826247Y-93003488D01*
X140723687Y-93016871D01*
X140635958Y-93061216D01*
X140610336Y-93084577D01*
X140557910Y-93171090D01*
X140536340Y-93270696D01*
X140533644Y-93329308D01*
X140551718Y-93418701D01*
G37*
G36*
X142358646Y-92801074D02*
G01*
X142454229Y-92835843D01*
X142471955Y-92845707D01*
X142551267Y-92904190D01*
X142617885Y-92982424D01*
X142621432Y-92987857D01*
X142669939Y-93077101D01*
X142706885Y-93174340D01*
X142713756Y-93196929D01*
X142739101Y-93295433D01*
X142757191Y-93393292D01*
X142763093Y-93438241D01*
X142771948Y-93538060D01*
X142776289Y-93643038D01*
X142776770Y-93693230D01*
X142774765Y-93807276D01*
X142768748Y-93913965D01*
X142758721Y-94013295D01*
X142736160Y-94148495D01*
X142704574Y-94267140D01*
X142663963Y-94369229D01*
X142614328Y-94454764D01*
X142534109Y-94543058D01*
X142437847Y-94601920D01*
X142325541Y-94631352D01*
X142263372Y-94635031D01*
X142163795Y-94625213D01*
X142068519Y-94592906D01*
X142050880Y-94583740D01*
X141966983Y-94523900D01*
X141900915Y-94447941D01*
X141852086Y-94361630D01*
X141814259Y-94268291D01*
X141807126Y-94246684D01*
X141786592Y-94172435D01*
X142017175Y-94172435D01*
X142049352Y-94264718D01*
X142100240Y-94351386D01*
X142103637Y-94355617D01*
X142186579Y-94411087D01*
X142263372Y-94422051D01*
X142360072Y-94399985D01*
X142368885Y-94395184D01*
X142445073Y-94329806D01*
X142447042Y-94327285D01*
X142493668Y-94241002D01*
X142500776Y-94221283D01*
X142528253Y-94126303D01*
X142534970Y-94095742D01*
X142550199Y-93997819D01*
X142554509Y-93953593D01*
X142561171Y-93855559D01*
X142562813Y-93811932D01*
X142564187Y-93712647D01*
X142564279Y-93675156D01*
X142562203Y-93574650D01*
X142555975Y-93484158D01*
X142017175Y-94172435D01*
X141786592Y-94172435D01*
X141780671Y-94151027D01*
X141761632Y-94054563D01*
X141755347Y-94009769D01*
X141746175Y-93909714D01*
X141741679Y-93804822D01*
X141741424Y-93779204D01*
X141954160Y-93779204D01*
X141958312Y-93877145D01*
X141970769Y-93975575D01*
X142505172Y-93291695D01*
X142474286Y-93197542D01*
X142469024Y-93184228D01*
X142424572Y-93096301D01*
X142355207Y-93026447D01*
X142260441Y-93003488D01*
X142156353Y-93030760D01*
X142073801Y-93112573D01*
X142021458Y-93222416D01*
X141990352Y-93337561D01*
X141973303Y-93439828D01*
X141961638Y-93555731D01*
X141955357Y-93685269D01*
X141954160Y-93779204D01*
X141741424Y-93779204D01*
X141741181Y-93754779D01*
X141743111Y-93653912D01*
X141748019Y-93567201D01*
X141757905Y-93468490D01*
X141770978Y-93378645D01*
X141791244Y-93278702D01*
X141813476Y-93196929D01*
X141847634Y-93104639D01*
X141880399Y-93036705D01*
X141932851Y-92954135D01*
X141973700Y-92906768D01*
X142051999Y-92845920D01*
X142099729Y-92821772D01*
X142196052Y-92794905D01*
X142258975Y-92790509D01*
X142358646Y-92801074D01*
G37*
G36*
X143447461Y-93418701D02*
G01*
X143241320Y-93469504D01*
X143219453Y-93372761D01*
X143213476Y-93312700D01*
X143212988Y-93294626D01*
X143212499Y-93277529D01*
X143221414Y-93170825D01*
X143248159Y-93075906D01*
X143299559Y-92983209D01*
X143355137Y-92921423D01*
X143441171Y-92858139D01*
X143538256Y-92815566D01*
X143633832Y-92795111D01*
X143711243Y-92790509D01*
X143829739Y-92798721D01*
X143932436Y-92823359D01*
X144038588Y-92877255D01*
X144120054Y-92956815D01*
X144176834Y-93062040D01*
X144204483Y-93164698D01*
X144216332Y-93283782D01*
X144216826Y-93316119D01*
X144203148Y-93425693D01*
X144168741Y-93523423D01*
X144113389Y-93622883D01*
X144049275Y-93709510D01*
X143997984Y-93767968D01*
X143924626Y-93836955D01*
X143846271Y-93905964D01*
X143794774Y-93950174D01*
X143718765Y-94015518D01*
X143641817Y-94084049D01*
X143577887Y-94144591D01*
X143512405Y-94220033D01*
X143475793Y-94278925D01*
X143441189Y-94373311D01*
X143439157Y-94390788D01*
X144242716Y-94390788D01*
X144242716Y-94603768D01*
X143199799Y-94603768D01*
X143198333Y-94538799D01*
X143197356Y-94471388D01*
X143203268Y-94373796D01*
X143205661Y-94358548D01*
X143234329Y-94256393D01*
X143283208Y-94156559D01*
X143342556Y-94071107D01*
X143417379Y-93987432D01*
X143441599Y-93963851D01*
X143516599Y-93896719D01*
X143591401Y-93833739D01*
X143646275Y-93788973D01*
X143727714Y-93722053D01*
X143804651Y-93655081D01*
X143831899Y-93629239D01*
X143900898Y-93552180D01*
X143953532Y-93468527D01*
X143989476Y-93377113D01*
X143997984Y-93315631D01*
X143986778Y-93214299D01*
X143949646Y-93121761D01*
X143930085Y-93092881D01*
X143850544Y-93028717D01*
X143747641Y-93004274D01*
X143721990Y-93003488D01*
X143619430Y-93016871D01*
X143531701Y-93061216D01*
X143506079Y-93084577D01*
X143453653Y-93171090D01*
X143432083Y-93270696D01*
X143429387Y-93329308D01*
X143447461Y-93418701D01*
G37*
G36*
X145526945Y-93822190D02*
G01*
X145702800Y-93822190D01*
X145702800Y-94035170D01*
X145526945Y-94035170D01*
X145526945Y-94603768D01*
X145312988Y-94603768D01*
X145312988Y-94035170D01*
X144671118Y-94035170D01*
X144588564Y-93853942D01*
X144613837Y-93822190D01*
X144875793Y-93822190D01*
X145312988Y-93822190D01*
X145312988Y-93240404D01*
X145262241Y-93324477D01*
X145206535Y-93407647D01*
X145149038Y-93487545D01*
X145109289Y-93540334D01*
X145045237Y-93622613D01*
X144977703Y-93705762D01*
X144908284Y-93786458D01*
X144875793Y-93822190D01*
X144613837Y-93822190D01*
X144651972Y-93774279D01*
X144676003Y-93744033D01*
X144739796Y-93662814D01*
X144800928Y-93583416D01*
X144852834Y-93514933D01*
X144912569Y-93435058D01*
X144973925Y-93351748D01*
X145036904Y-93265004D01*
X145049694Y-93247243D01*
X145110755Y-93159602D01*
X145165709Y-93075586D01*
X145219107Y-92987356D01*
X145223595Y-92979553D01*
X145271142Y-92888025D01*
X145302638Y-92794568D01*
X145303218Y-92790509D01*
X145526945Y-92790509D01*
X145526945Y-93822190D01*
G37*
D11*
X126494290Y-62577965D02*
X126494290Y-63387488D01*
X126494290Y-63387488D02*
X126541909Y-63482726D01*
X126541909Y-63482726D02*
X126589528Y-63530346D01*
X126589528Y-63530346D02*
X126684766Y-63577965D01*
X126684766Y-63577965D02*
X126875242Y-63577965D01*
X126875242Y-63577965D02*
X126970480Y-63530346D01*
X126970480Y-63530346D02*
X127018099Y-63482726D01*
X127018099Y-63482726D02*
X127065718Y-63387488D01*
X127065718Y-63387488D02*
X127065718Y-62577965D01*
X128065718Y-63577965D02*
X127494290Y-63577965D01*
X127780004Y-63577965D02*
X127780004Y-62577965D01*
X127780004Y-62577965D02*
X127684766Y-62720822D01*
X127684766Y-62720822D02*
X127589528Y-62816060D01*
X127589528Y-62816060D02*
X127494290Y-62863679D01*
X127520590Y-31002964D02*
X126949162Y-31002964D01*
X127234876Y-31002964D02*
X127234876Y-30002964D01*
X127234876Y-30002964D02*
X127139638Y-30145821D01*
X127139638Y-30145821D02*
X127044400Y-30241059D01*
X127044400Y-30241059D02*
X126949162Y-30288678D01*
X127520590Y-31002964D02*
X126949162Y-31002964D01*
X127234876Y-31002964D02*
X127234876Y-30002964D01*
X127234876Y-30002964D02*
X127139638Y-30145821D01*
X127139638Y-30145821D02*
X127044400Y-30241059D01*
X127044400Y-30241059D02*
X126949162Y-30288678D01*
X132235832Y-30706295D02*
X132616784Y-30706295D01*
X132378689Y-30372962D02*
X132378689Y-31230104D01*
X132378689Y-31230104D02*
X132426308Y-31325343D01*
X132426308Y-31325343D02*
X132521546Y-31372962D01*
X132521546Y-31372962D02*
X132616784Y-31372962D01*
X133092975Y-31372962D02*
X132997737Y-31325343D01*
X132997737Y-31325343D02*
X132950118Y-31277723D01*
X132950118Y-31277723D02*
X132902499Y-31182485D01*
X132902499Y-31182485D02*
X132902499Y-30896771D01*
X132902499Y-30896771D02*
X132950118Y-30801533D01*
X132950118Y-30801533D02*
X132997737Y-30753914D01*
X132997737Y-30753914D02*
X133092975Y-30706295D01*
X133092975Y-30706295D02*
X133235832Y-30706295D01*
X133235832Y-30706295D02*
X133331070Y-30753914D01*
X133331070Y-30753914D02*
X133378689Y-30801533D01*
X133378689Y-30801533D02*
X133426308Y-30896771D01*
X133426308Y-30896771D02*
X133426308Y-31182485D01*
X133426308Y-31182485D02*
X133378689Y-31277723D01*
X133378689Y-31277723D02*
X133331070Y-31325343D01*
X133331070Y-31325343D02*
X133235832Y-31372962D01*
X133235832Y-31372962D02*
X133092975Y-31372962D01*
X133854880Y-30706295D02*
X133854880Y-31706295D01*
X133854880Y-30753914D02*
X133950118Y-30706295D01*
X133950118Y-30706295D02*
X134140594Y-30706295D01*
X134140594Y-30706295D02*
X134235832Y-30753914D01*
X134235832Y-30753914D02*
X134283451Y-30801533D01*
X134283451Y-30801533D02*
X134331070Y-30896771D01*
X134331070Y-30896771D02*
X134331070Y-31182485D01*
X134331070Y-31182485D02*
X134283451Y-31277723D01*
X134283451Y-31277723D02*
X134235832Y-31325343D01*
X134235832Y-31325343D02*
X134140594Y-31372962D01*
X134140594Y-31372962D02*
X133950118Y-31372962D01*
X133950118Y-31372962D02*
X133854880Y-31325343D01*
X134712023Y-31325343D02*
X134807261Y-31372962D01*
X134807261Y-31372962D02*
X134997737Y-31372962D01*
X134997737Y-31372962D02*
X135092975Y-31325343D01*
X135092975Y-31325343D02*
X135140594Y-31230104D01*
X135140594Y-31230104D02*
X135140594Y-31182485D01*
X135140594Y-31182485D02*
X135092975Y-31087247D01*
X135092975Y-31087247D02*
X134997737Y-31039628D01*
X134997737Y-31039628D02*
X134854880Y-31039628D01*
X134854880Y-31039628D02*
X134759642Y-30992009D01*
X134759642Y-30992009D02*
X134712023Y-30896771D01*
X134712023Y-30896771D02*
X134712023Y-30849152D01*
X134712023Y-30849152D02*
X134759642Y-30753914D01*
X134759642Y-30753914D02*
X134854880Y-30706295D01*
X134854880Y-30706295D02*
X134997737Y-30706295D01*
X134997737Y-30706295D02*
X135092975Y-30753914D01*
X135569166Y-31372962D02*
X135569166Y-30706295D01*
X135569166Y-30372962D02*
X135521547Y-30420581D01*
X135521547Y-30420581D02*
X135569166Y-30468200D01*
X135569166Y-30468200D02*
X135616785Y-30420581D01*
X135616785Y-30420581D02*
X135569166Y-30372962D01*
X135569166Y-30372962D02*
X135569166Y-30468200D01*
X136473927Y-31372962D02*
X136473927Y-30372962D01*
X136473927Y-31325343D02*
X136378689Y-31372962D01*
X136378689Y-31372962D02*
X136188213Y-31372962D01*
X136188213Y-31372962D02*
X136092975Y-31325343D01*
X136092975Y-31325343D02*
X136045356Y-31277723D01*
X136045356Y-31277723D02*
X135997737Y-31182485D01*
X135997737Y-31182485D02*
X135997737Y-30896771D01*
X135997737Y-30896771D02*
X136045356Y-30801533D01*
X136045356Y-30801533D02*
X136092975Y-30753914D01*
X136092975Y-30753914D02*
X136188213Y-30706295D01*
X136188213Y-30706295D02*
X136378689Y-30706295D01*
X136378689Y-30706295D02*
X136473927Y-30753914D01*
X137331070Y-31325343D02*
X137235832Y-31372962D01*
X137235832Y-31372962D02*
X137045356Y-31372962D01*
X137045356Y-31372962D02*
X136950118Y-31325343D01*
X136950118Y-31325343D02*
X136902499Y-31230104D01*
X136902499Y-31230104D02*
X136902499Y-30849152D01*
X136902499Y-30849152D02*
X136950118Y-30753914D01*
X136950118Y-30753914D02*
X137045356Y-30706295D01*
X137045356Y-30706295D02*
X137235832Y-30706295D01*
X137235832Y-30706295D02*
X137331070Y-30753914D01*
X137331070Y-30753914D02*
X137378689Y-30849152D01*
X137378689Y-30849152D02*
X137378689Y-30944390D01*
X137378689Y-30944390D02*
X136902499Y-31039628D01*
X127520590Y-31002964D02*
X126949162Y-31002964D01*
X127234876Y-31002964D02*
X127234876Y-30002964D01*
X127234876Y-30002964D02*
X127139638Y-30145821D01*
X127139638Y-30145821D02*
X127044400Y-30241059D01*
X127044400Y-30241059D02*
X126949162Y-30288678D01*
X133592975Y-28972962D02*
X133592975Y-29782485D01*
X133592975Y-29782485D02*
X133640594Y-29877723D01*
X133640594Y-29877723D02*
X133688213Y-29925343D01*
X133688213Y-29925343D02*
X133783451Y-29972962D01*
X133783451Y-29972962D02*
X133973927Y-29972962D01*
X133973927Y-29972962D02*
X134069165Y-29925343D01*
X134069165Y-29925343D02*
X134116784Y-29877723D01*
X134116784Y-29877723D02*
X134164403Y-29782485D01*
X134164403Y-29782485D02*
X134164403Y-28972962D01*
X134592975Y-29925343D02*
X134735832Y-29972962D01*
X134735832Y-29972962D02*
X134973927Y-29972962D01*
X134973927Y-29972962D02*
X135069165Y-29925343D01*
X135069165Y-29925343D02*
X135116784Y-29877723D01*
X135116784Y-29877723D02*
X135164403Y-29782485D01*
X135164403Y-29782485D02*
X135164403Y-29687247D01*
X135164403Y-29687247D02*
X135116784Y-29592009D01*
X135116784Y-29592009D02*
X135069165Y-29544390D01*
X135069165Y-29544390D02*
X134973927Y-29496771D01*
X134973927Y-29496771D02*
X134783451Y-29449152D01*
X134783451Y-29449152D02*
X134688213Y-29401533D01*
X134688213Y-29401533D02*
X134640594Y-29353914D01*
X134640594Y-29353914D02*
X134592975Y-29258676D01*
X134592975Y-29258676D02*
X134592975Y-29163438D01*
X134592975Y-29163438D02*
X134640594Y-29068200D01*
X134640594Y-29068200D02*
X134688213Y-29020581D01*
X134688213Y-29020581D02*
X134783451Y-28972962D01*
X134783451Y-28972962D02*
X135021546Y-28972962D01*
X135021546Y-28972962D02*
X135164403Y-29020581D01*
X135926308Y-29449152D02*
X136069165Y-29496771D01*
X136069165Y-29496771D02*
X136116784Y-29544390D01*
X136116784Y-29544390D02*
X136164403Y-29639628D01*
X136164403Y-29639628D02*
X136164403Y-29782485D01*
X136164403Y-29782485D02*
X136116784Y-29877723D01*
X136116784Y-29877723D02*
X136069165Y-29925343D01*
X136069165Y-29925343D02*
X135973927Y-29972962D01*
X135973927Y-29972962D02*
X135592975Y-29972962D01*
X135592975Y-29972962D02*
X135592975Y-28972962D01*
X135592975Y-28972962D02*
X135926308Y-28972962D01*
X135926308Y-28972962D02*
X136021546Y-29020581D01*
X136021546Y-29020581D02*
X136069165Y-29068200D01*
X136069165Y-29068200D02*
X136116784Y-29163438D01*
X136116784Y-29163438D02*
X136116784Y-29258676D01*
X136116784Y-29258676D02*
X136069165Y-29353914D01*
X136069165Y-29353914D02*
X136021546Y-29401533D01*
X136021546Y-29401533D02*
X135926308Y-29449152D01*
X135926308Y-29449152D02*
X135592975Y-29449152D01*
X127520590Y-31002964D02*
X126949162Y-31002964D01*
X127234876Y-31002964D02*
X127234876Y-30002964D01*
X127234876Y-30002964D02*
X127139638Y-30145821D01*
X127139638Y-30145821D02*
X127044400Y-30241059D01*
X127044400Y-30241059D02*
X126949162Y-30288678D01*
X127520590Y-31002964D02*
X126949162Y-31002964D01*
X127234876Y-31002964D02*
X127234876Y-30002964D01*
X127234876Y-30002964D02*
X127139638Y-30145821D01*
X127139638Y-30145821D02*
X127044400Y-30241059D01*
X127044400Y-30241059D02*
X126949162Y-30288678D01*
%TO.C,U1*%
X143685538Y-61683805D02*
G75*
G02*
X142624879Y-62123144I-1060660J1060661D01*
G01*
X142824879Y-28523143D02*
G75*
G02*
X144324881Y-30023143I1J-1500001D01*
G01*
X127084882Y-62123143D02*
G75*
G02*
X126024220Y-61683806I-4J1500002D01*
G01*
X125384880Y-30023141D02*
G75*
G02*
X126884879Y-28523141I1500001J-1D01*
G01*
X144324880Y-30023143D02*
X144324880Y-31023140D01*
X142824879Y-28523143D02*
X126884879Y-28523143D01*
X142624879Y-62123142D02*
X141424880Y-62123143D01*
X138404877Y-32103144D02*
X138404880Y-28523143D01*
X138404877Y-32103144D02*
X131304878Y-32103141D01*
X131304878Y-32103141D02*
X131304880Y-28523143D01*
X128284880Y-62123143D02*
X127084882Y-62123143D01*
X125384880Y-30023141D02*
X125384877Y-31023144D01*
%TD*%
M02*
