%TF.GenerationSoftware,KiCad,Pcbnew,8.0.4*%
%TF.CreationDate,2024-12-12T17:25:20-05:00*%
%TF.ProjectId,babier-v,62616269-6572-42d7-962e-6b696361645f,rev?*%
%TF.SameCoordinates,Original*%
%TF.FileFunction,Profile,NP*%
%FSLAX46Y46*%
G04 Gerber Fmt 4.6, Leading zero omitted, Abs format (unit mm)*
G04 Created by KiCad (PCBNEW 8.0.4) date 2024-12-12 17:25:20*
%MOMM*%
%LPD*%
G01*
G04 APERTURE LIST*
%TA.AperFunction,Profile*%
%ADD10C,0.200000*%
%TD*%
G04 APERTURE END LIST*
D10*
X38155130Y-20309372D02*
X25978442Y-20309374D01*
X21978437Y-24309380D02*
G75*
G02*
X25978442Y-20309376I4000004J0D01*
G01*
X247909687Y-70681199D02*
X247909687Y-24309400D01*
X41231908Y-74702119D02*
X67676179Y-77414352D01*
X67676179Y-77414352D02*
G75*
G02*
X71200680Y-82124910I-408079J-3979148D01*
G01*
X243909661Y-20309375D02*
X231732996Y-20309375D01*
X228656159Y-74702127D02*
G75*
G02*
X229064362Y-74681258I408043J-3978675D01*
G01*
X200755381Y-93383506D02*
X198685861Y-82116107D01*
X120200717Y-28226165D02*
X46692581Y-20717270D01*
X120607163Y-28246878D02*
G75*
G02*
X120200716Y-28226172I37J4000277D01*
G01*
X46692581Y-20717270D02*
X46476354Y-20701092D01*
X231542736Y-20313902D02*
X223411769Y-20701088D01*
X40823862Y-74681251D02*
G75*
G02*
X41231907Y-74702125I-62J-3999949D01*
G01*
X38250312Y-74681250D02*
X40823862Y-74681251D01*
X157390728Y-105568985D02*
G75*
G02*
X156659786Y-105637504I-737429J3933683D01*
G01*
X71200648Y-82124904D02*
X69132749Y-93383462D01*
X21978437Y-24309380D02*
X21978435Y-70695057D01*
X247909687Y-70681199D02*
G75*
G02*
X243909660Y-74681187I-3999987J-1D01*
G01*
X134690935Y-28246876D02*
X120607163Y-28246878D01*
X25978462Y-74681251D02*
G75*
G02*
X21978431Y-70695057I-2J4000053D01*
G01*
X149687468Y-28226161D02*
G75*
G02*
X149280862Y-28246879I-406669J3980858D01*
G01*
X200755381Y-93383506D02*
G75*
G02*
X197558343Y-98037577I-3934181J-722591D01*
G01*
X72329814Y-98037565D02*
G75*
G02*
X69132718Y-93383456I737186J3931565D01*
G01*
X198685861Y-82116107D02*
G75*
G02*
X202211945Y-77414328I3934236J722610D01*
G01*
X46476354Y-20701092D02*
X38345387Y-20313900D01*
X231637811Y-74681249D02*
X243909661Y-74681252D01*
X113234558Y-105637502D02*
X134601872Y-105637500D01*
X157390728Y-105568985D02*
X197558339Y-98037556D01*
X202211944Y-77414349D02*
X228656159Y-74702127D01*
X223195543Y-20717271D02*
X149687468Y-28226161D01*
X113234558Y-105637502D02*
G75*
G02*
X112497418Y-105568989I42J4000200D01*
G01*
X223411769Y-20701088D02*
X223195543Y-20717271D01*
X149280862Y-28246875D02*
X134690935Y-28246876D01*
X72329814Y-98037565D02*
X112497418Y-105568991D01*
X25978462Y-74681251D02*
X38250312Y-74681250D01*
X38345387Y-20313900D02*
X38155130Y-20309372D01*
X231732996Y-20309375D02*
X231542736Y-20313902D01*
X134601872Y-105637500D02*
X156659786Y-105637502D01*
X243909661Y-20309375D02*
G75*
G02*
X247909724Y-24309400I38J-4000025D01*
G01*
X229064362Y-74681251D02*
X231637811Y-74681249D01*
M02*
