%TF.GenerationSoftware,KiCad,Pcbnew,8.0.4*%
%TF.CreationDate,2024-12-12T17:25:20-05:00*%
%TF.ProjectId,babier-v,62616269-6572-42d7-962e-6b696361645f,rev?*%
%TF.SameCoordinates,Original*%
%TF.FileFunction,Soldermask,Top*%
%TF.FilePolarity,Negative*%
%FSLAX46Y46*%
G04 Gerber Fmt 4.6, Leading zero omitted, Abs format (unit mm)*
G04 Created by KiCad (PCBNEW 8.0.4) date 2024-12-12 17:25:20*
%MOMM*%
%LPD*%
G01*
G04 APERTURE LIST*
G04 Aperture macros list*
%AMRoundRect*
0 Rectangle with rounded corners*
0 $1 Rounding radius*
0 $2 $3 $4 $5 $6 $7 $8 $9 X,Y pos of 4 corners*
0 Add a 4 corners polygon primitive as box body*
4,1,4,$2,$3,$4,$5,$6,$7,$8,$9,$2,$3,0*
0 Add four circle primitives for the rounded corners*
1,1,$1+$1,$2,$3*
1,1,$1+$1,$4,$5*
1,1,$1+$1,$6,$7*
1,1,$1+$1,$8,$9*
0 Add four rect primitives between the rounded corners*
20,1,$1+$1,$2,$3,$4,$5,0*
20,1,$1+$1,$4,$5,$6,$7,0*
20,1,$1+$1,$6,$7,$8,$9,0*
20,1,$1+$1,$8,$9,$2,$3,0*%
G04 Aperture macros list end*
%ADD10C,1.750000*%
%ADD11C,3.987800*%
%ADD12C,1.800000*%
%ADD13RoundRect,0.450000X0.450000X-1.300000X0.450000X1.300000X-0.450000X1.300000X-0.450000X-1.300000X0*%
%ADD14RoundRect,0.450000X-1.300000X-0.450000X1.300000X-0.450000X1.300000X0.450000X-1.300000X0.450000X0*%
%ADD15RoundRect,0.450000X-0.450000X-0.450000X0.450000X-0.450000X0.450000X0.450000X-0.450000X0.450000X0*%
G04 APERTURE END LIST*
D10*
%TO.C,SW7*%
X182894156Y-33151831D03*
D11*
X177841985Y-33682834D03*
D10*
X172789814Y-34213837D03*
%TD*%
%TO.C,SW26*%
X167931045Y-73034379D03*
D11*
X162878874Y-73565382D03*
D10*
X157826703Y-74096385D03*
%TD*%
%TO.C,SW23*%
X74150524Y-70113853D03*
D11*
X69098353Y-69582847D03*
D10*
X64046182Y-69051841D03*
%TD*%
%TO.C,SW28*%
X205822330Y-69051846D03*
D11*
X200770159Y-69582849D03*
D10*
X195717988Y-70113852D03*
%TD*%
%TO.C,SW8*%
X201839795Y-31160562D03*
D11*
X196787624Y-31691565D03*
D10*
X191735453Y-32222568D03*
%TD*%
%TO.C,SW15*%
X114033074Y-55150746D03*
D11*
X108980903Y-54619740D03*
D10*
X103928732Y-54088734D03*
%TD*%
%TO.C,SW5*%
X116024341Y-36205104D03*
D11*
X110972170Y-35674098D03*
D10*
X105919999Y-35143092D03*
%TD*%
%TO.C,SW1*%
X35239252Y-28443767D03*
D11*
X30159252Y-28443766D03*
D10*
X25079252Y-28443765D03*
%TD*%
%TO.C,SW24*%
X93096166Y-72105121D03*
D11*
X88043995Y-71574115D03*
D10*
X82991824Y-71043109D03*
%TD*%
%TO.C,SW6*%
X163948512Y-35143095D03*
D11*
X158896341Y-35674098D03*
D10*
X153844170Y-36205101D03*
%TD*%
%TO.C,SW25*%
X112041810Y-74096389D03*
D11*
X106989639Y-73565383D03*
D10*
X101937468Y-73034377D03*
%TD*%
%TO.C,SW33*%
X158683594Y-96668689D03*
D11*
X163686417Y-95786555D03*
D10*
X168689240Y-94904421D03*
%TD*%
%TO.C,SW22*%
X55204881Y-68122587D03*
D11*
X50152710Y-67591581D03*
D10*
X45100539Y-67060575D03*
%TD*%
%TO.C,SW17*%
X184885420Y-52097470D03*
D11*
X179833249Y-52628473D03*
D10*
X174781078Y-53159476D03*
%TD*%
%TO.C,SW32*%
X111184915Y-96668685D03*
D11*
X106182093Y-95786555D03*
D10*
X101179271Y-94904425D03*
%TD*%
%TO.C,SW29*%
X224767971Y-67060578D03*
D11*
X219715800Y-67591581D03*
D10*
X214663629Y-68122584D03*
%TD*%
D12*
%TO.C,U1*%
X142474880Y-29793144D03*
D13*
X139934880Y-61573143D03*
D12*
X139934878Y-60273142D03*
D13*
X137394880Y-61573143D03*
D12*
X137394881Y-60273143D03*
D13*
X134854882Y-61573142D03*
D12*
X134854881Y-60273143D03*
D13*
X132314880Y-61573143D03*
D12*
X132314880Y-60273142D03*
D13*
X129774880Y-61573141D03*
D12*
X129774880Y-60273140D03*
D14*
X143774880Y-60273143D03*
D12*
X142474880Y-60273143D03*
D14*
X143774881Y-57733146D03*
D12*
X142474881Y-57733143D03*
D14*
X143774879Y-55193142D03*
D12*
X142474881Y-55193145D03*
D14*
X143774880Y-52653142D03*
D12*
X142474881Y-52653143D03*
D14*
X143774881Y-50113146D03*
D12*
X142474881Y-50113142D03*
D14*
X143774880Y-47573140D03*
D12*
X142474880Y-47573143D03*
D14*
X143774881Y-45033143D03*
D12*
X142474880Y-45033143D03*
D14*
X143774881Y-42493146D03*
D12*
X142474880Y-42493141D03*
D14*
X143774880Y-39953143D03*
D12*
X142474881Y-39953143D03*
D14*
X143774883Y-37413144D03*
D12*
X142474882Y-37413145D03*
D14*
X143774879Y-34873143D03*
D15*
X142474878Y-34873143D03*
D14*
X143774880Y-32333143D03*
D12*
X142474880Y-32333143D03*
X127234880Y-60273143D03*
D14*
X125934880Y-60273143D03*
D12*
X127234882Y-57733143D03*
D14*
X125934881Y-57733143D03*
D12*
X127234878Y-55193141D03*
D14*
X125934877Y-55193142D03*
D12*
X127234879Y-52653143D03*
D14*
X125934880Y-52653143D03*
D12*
X127234880Y-50113145D03*
D14*
X125934879Y-50113140D03*
D12*
X127234880Y-47573143D03*
D14*
X125934879Y-47573143D03*
D12*
X127234880Y-45033143D03*
D14*
X125934880Y-45033146D03*
D12*
X127234879Y-42493144D03*
D14*
X125934879Y-42493140D03*
D15*
X127234879Y-39953143D03*
D14*
X125934880Y-39953144D03*
D15*
X127234879Y-37413141D03*
D14*
X125934881Y-37413144D03*
D12*
X127234879Y-34873143D03*
D14*
X125934879Y-34873140D03*
D12*
X127234880Y-32333143D03*
D14*
X125934880Y-32333143D03*
%TD*%
D10*
%TO.C,SW4*%
X97078698Y-34213833D03*
D11*
X92026527Y-33682827D03*
D10*
X86974356Y-33151821D03*
%TD*%
%TO.C,SW14*%
X95087432Y-53159479D03*
D11*
X90035261Y-52628473D03*
D10*
X84983090Y-52097467D03*
%TD*%
%TO.C,SW18*%
X203831063Y-50106206D03*
D11*
X198778892Y-50637209D03*
D10*
X193726721Y-51168212D03*
%TD*%
%TO.C,SW10*%
X244789255Y-28443769D03*
D11*
X239709255Y-28443768D03*
D10*
X234629255Y-28443767D03*
%TD*%
%TO.C,SW31*%
X83044034Y-91706689D03*
D11*
X78041212Y-90824559D03*
D10*
X73038390Y-89942429D03*
%TD*%
%TO.C,SW13*%
X76141789Y-51168209D03*
D11*
X71089618Y-50637203D03*
D10*
X66037447Y-50106197D03*
%TD*%
%TO.C,SW21*%
X35239254Y-66543769D03*
D11*
X30159254Y-66543768D03*
D10*
X25079254Y-66543767D03*
%TD*%
%TO.C,SW19*%
X222776703Y-48114937D03*
D11*
X217724532Y-48645940D03*
D10*
X212672361Y-49176943D03*
%TD*%
%TO.C,SW34*%
X186824474Y-91706690D03*
D11*
X191827297Y-90824556D03*
D10*
X196830120Y-89942422D03*
%TD*%
%TO.C,SW11*%
X35239255Y-47493766D03*
D11*
X30159255Y-47493765D03*
D10*
X25079255Y-47493764D03*
%TD*%
%TO.C,SW20*%
X244789255Y-47493771D03*
D11*
X239709255Y-47493770D03*
D10*
X234629255Y-47493769D03*
%TD*%
%TO.C,SW3*%
X78133056Y-32222570D03*
D11*
X73080885Y-31691564D03*
D10*
X68028714Y-31160558D03*
%TD*%
%TO.C,SW12*%
X57196146Y-49176946D03*
D11*
X52143975Y-48645940D03*
D10*
X47091804Y-48114934D03*
%TD*%
%TO.C,SW16*%
X165939778Y-54088737D03*
D11*
X160887607Y-54619740D03*
D10*
X155835436Y-55150743D03*
%TD*%
%TO.C,SW9*%
X220785435Y-29169294D03*
D11*
X215733264Y-29700297D03*
D10*
X210681093Y-30231300D03*
%TD*%
%TO.C,SW2*%
X59187415Y-30231302D03*
D11*
X54135244Y-29700296D03*
D10*
X49083073Y-29169290D03*
%TD*%
%TO.C,SW27*%
X186876688Y-71043113D03*
D11*
X181824517Y-71574116D03*
D10*
X176772346Y-72105119D03*
%TD*%
%TO.C,SW30*%
X244789254Y-66543769D03*
D11*
X239709254Y-66543768D03*
D10*
X234629254Y-66543767D03*
%TD*%
M02*
