M48
; DRILL file {KiCad 8.0.4} date 2024-12-12T17:25:16-0500
; FORMAT={-:-/ absolute / inch / decimal}
; #@! TF.CreationDate,2024-12-12T17:25:16-05:00
; #@! TF.GenerationSoftware,Kicad,Pcbnew,8.0.4
; #@! TF.FileFunction,Plated,1,2,PTH
FMAT,2
INCH
; #@! TA.AperFunction,Plated,PTH,ViaDrill
T1C0.0118
; #@! TA.AperFunction,Plated,PTH,ComponentDrill
T2C0.0394
; #@! TA.AperFunction,Plated,PTH,ComponentDrill
T3C0.0600
%
G90
G05
T1
X1.2148Y-1.4021
X2.1488Y-1.4607
X2.8665Y-1.5065
X3.6331Y-1.5573
X4.2884Y-1.7252
X4.3019Y-1.688
X4.3149Y-1.6593
X4.3273Y-1.6303
X4.6898Y-1.9554
X5.9833Y-1.6649
X6.0035Y-1.6925
X6.0261Y-1.7198
X6.0488Y-1.7471
X6.0513Y-2.4297
X6.0808Y-3.9352
X6.2042Y-3.2104
X6.7052Y-1.5891
X7.4326Y-1.5423
X8.1992Y-1.4914
X9.1224Y-1.4241
T2
X5.0092Y-2.173
X5.0092Y-1.373
X5.0092Y-1.473
X5.0092Y-1.573
X5.0092Y-1.673
X5.0092Y-2.073
X5.0092Y-1.273
X5.0092Y-1.773
X5.0092Y-1.873
X5.0092Y-1.973
X5.0092Y-2.373
X5.0092Y-2.273
X5.1092Y-2.373
X5.2092Y-2.373
X5.3092Y-2.373
X5.4092Y-2.373
X5.5092Y-2.373
X5.6092Y-1.373
X5.6092Y-1.173
X5.6092Y-1.273
X5.6092Y-1.673
X5.6092Y-1.773
X5.6092Y-1.873
X5.6092Y-2.373
X5.6092Y-1.573
X5.6092Y-1.973
X5.6092Y-2.073
X5.6092Y-2.173
X5.6092Y-2.273
X5.6092Y-1.473
T3
X1.0374Y-1.0198
X1.0374Y-2.5198
X1.0374Y-1.7698
X1.2874Y-0.9198
X1.2874Y-2.4198
X1.2874Y-1.6698
X1.8358Y-2.546
X1.9142Y-1.8001
X1.9926Y-1.0542
X2.0949Y-2.4726
X2.1733Y-1.7267
X2.2517Y-0.9809
X2.5817Y-2.6244
X2.6601Y-1.8785
X2.7385Y-1.1326
X2.8408Y-2.551
X2.9192Y-1.8051
X2.9421Y-3.4512
X2.9976Y-1.0592
X3.2057Y-3.3962
X3.3276Y-2.7027
X3.406Y-1.9569
X3.4844Y-1.211
X3.5867Y-2.6294
X3.6651Y-1.8835
X3.7434Y-1.1376
X4.05Y-3.6466
X4.0735Y-2.7811
X4.1519Y-2.0353
X4.2303Y-1.2894
X4.3136Y-3.5915
X4.3325Y-2.7078
X4.4109Y-1.9619
X4.4893Y-1.216
X6.0961Y-1.3207
X6.1745Y-2.0666
X6.2529Y-2.8125
X6.2793Y-3.6987
X6.3343Y-1.1951
X6.4127Y-1.941
X6.4911Y-2.6869
X6.5081Y-3.5568
X6.842Y-1.2423
X6.9204Y-1.9882
X6.9988Y-2.7341
X7.0802Y-1.1167
X7.1586Y-1.8626
X7.237Y-2.6085
X7.3872Y-3.5033
X7.5879Y-1.1639
X7.616Y-3.3614
X7.6663Y-1.9098
X7.7447Y-2.6557
X7.8261Y-1.0383
X7.9045Y-1.7842
X7.9829Y-2.5301
X8.3338Y-1.0855
X8.4122Y-1.8314
X8.4906Y-2.5773
X8.572Y-0.9599
X8.6504Y-1.7058
X8.7288Y-2.4517
X9.2874Y-2.5198
X9.2874Y-1.0198
X9.2874Y-1.7698
X9.5374Y-2.4198
X9.5374Y-0.9198
X9.5374Y-1.6698
M30
