%TF.GenerationSoftware,KiCad,Pcbnew,8.0.4*%
%TF.CreationDate,2024-12-12T17:25:20-05:00*%
%TF.ProjectId,babier-v,62616269-6572-42d7-962e-6b696361645f,rev?*%
%TF.SameCoordinates,Original*%
%TF.FileFunction,Copper,L1,Top*%
%TF.FilePolarity,Positive*%
%FSLAX46Y46*%
G04 Gerber Fmt 4.6, Leading zero omitted, Abs format (unit mm)*
G04 Created by KiCad (PCBNEW 8.0.4) date 2024-12-12 17:25:20*
%MOMM*%
%LPD*%
G01*
G04 APERTURE LIST*
G04 Aperture macros list*
%AMRoundRect*
0 Rectangle with rounded corners*
0 $1 Rounding radius*
0 $2 $3 $4 $5 $6 $7 $8 $9 X,Y pos of 4 corners*
0 Add a 4 corners polygon primitive as box body*
4,1,4,$2,$3,$4,$5,$6,$7,$8,$9,$2,$3,0*
0 Add four circle primitives for the rounded corners*
1,1,$1+$1,$2,$3*
1,1,$1+$1,$4,$5*
1,1,$1+$1,$6,$7*
1,1,$1+$1,$8,$9*
0 Add four rect primitives between the rounded corners*
20,1,$1+$1,$2,$3,$4,$5,0*
20,1,$1+$1,$4,$5,$6,$7,0*
20,1,$1+$1,$6,$7,$8,$9,0*
20,1,$1+$1,$8,$9,$2,$3,0*%
G04 Aperture macros list end*
%TA.AperFunction,ComponentPad*%
%ADD10C,2.300000*%
%TD*%
%TA.AperFunction,ComponentPad*%
%ADD11C,1.800000*%
%TD*%
%TA.AperFunction,SMDPad,CuDef*%
%ADD12RoundRect,0.450000X0.450000X-1.300000X0.450000X1.300000X-0.450000X1.300000X-0.450000X-1.300000X0*%
%TD*%
%TA.AperFunction,SMDPad,CuDef*%
%ADD13RoundRect,0.450000X-1.300000X-0.450000X1.300000X-0.450000X1.300000X0.450000X-1.300000X0.450000X0*%
%TD*%
%TA.AperFunction,ComponentPad*%
%ADD14RoundRect,0.450000X-0.450000X-0.450000X0.450000X-0.450000X0.450000X0.450000X-0.450000X0.450000X0*%
%TD*%
%TA.AperFunction,ViaPad*%
%ADD15C,0.600000*%
%TD*%
%TA.AperFunction,Conductor*%
%ADD16C,0.200000*%
%TD*%
G04 APERTURE END LIST*
D10*
%TO.P,SW7,2,2*%
%TO.N,Net-(D7-A)*%
X179837067Y-28365160D03*
%TO.P,SW7,1,1*%
%TO.N,/F5*%
X173787354Y-31555002D03*
%TD*%
%TO.P,SW26,2,2*%
%TO.N,Net-(D26-A)*%
X164873956Y-68247708D03*
%TO.P,SW26,1,1*%
%TO.N,/F4*%
X158824243Y-71437550D03*
%TD*%
%TO.P,SW23,2,2*%
%TO.N,Net-(D23-A)*%
X72155446Y-64796179D03*
%TO.P,SW23,1,1*%
%TO.N,/D4*%
X65574727Y-66658509D03*
%TD*%
%TO.P,SW28,2,2*%
%TO.N,Net-(D28-A)*%
X202765241Y-64265175D03*
%TO.P,SW28,1,1*%
%TO.N,/F6*%
X196715528Y-67455017D03*
%TD*%
%TO.P,SW8,2,2*%
%TO.N,Net-(D8-A)*%
X198782706Y-26373891D03*
%TO.P,SW8,1,1*%
%TO.N,/F6*%
X192732993Y-29563733D03*
%TD*%
%TO.P,SW15,2,2*%
%TO.N,Net-(D15-A)*%
X112037996Y-49833072D03*
%TO.P,SW15,1,1*%
%TO.N,/D1*%
X105457277Y-51695402D03*
%TD*%
%TO.P,SW5,2,2*%
%TO.N,Net-(D5-A)*%
X114029263Y-30887430D03*
%TO.P,SW5,1,1*%
%TO.N,/D1*%
X107448544Y-32749760D03*
%TD*%
%TO.P,SW1,2,2*%
%TO.N,Net-(D1-A)*%
X32699254Y-23363766D03*
%TO.P,SW1,1,1*%
%TO.N,/D7*%
X26349252Y-25903766D03*
%TD*%
%TO.P,SW24,2,2*%
%TO.N,Net-(D24-A)*%
X91101088Y-66787447D03*
%TO.P,SW24,1,1*%
%TO.N,/D0*%
X84520369Y-68649777D03*
%TD*%
%TO.P,SW6,2,2*%
%TO.N,Net-(D6-A)*%
X160891423Y-30356424D03*
%TO.P,SW6,1,1*%
%TO.N,/F4*%
X154841710Y-33546266D03*
%TD*%
%TO.P,SW25,2,2*%
%TO.N,Net-(D25-A)*%
X110046732Y-68778715D03*
%TO.P,SW25,1,1*%
%TO.N,/D1*%
X103466013Y-70641045D03*
%TD*%
%TO.P,SW33,1,1*%
%TO.N,/F4*%
X159493233Y-93946743D03*
%TO.P,SW33,2,2*%
%TO.N,Net-(D33-A)*%
X165305696Y-90342665D03*
%TD*%
%TO.P,SW22,2,2*%
%TO.N,Net-(D22-A)*%
X53209803Y-62804913D03*
%TO.P,SW22,1,1*%
%TO.N,/C6*%
X46629084Y-64667243D03*
%TD*%
%TO.P,SW17,2,2*%
%TO.N,Net-(D17-A)*%
X181828331Y-47310799D03*
%TO.P,SW17,1,1*%
%TO.N,/F5*%
X175778618Y-50500641D03*
%TD*%
%TO.P,SW32,2,2*%
%TO.N,Net-(D32-A)*%
X109565638Y-91224798D03*
%TO.P,SW32,1,1*%
%TO.N,/D1*%
X102871042Y-92623544D03*
%TD*%
%TO.P,SW29,2,2*%
%TO.N,Net-(D29-A)*%
X221710882Y-62273907D03*
%TO.P,SW29,1,1*%
%TO.N,/F7*%
X215661169Y-65463749D03*
%TD*%
D11*
%TO.P,U1,30,VBUS*%
%TO.N,unconnected-(U1-VBUS-Pad30)*%
X142474880Y-29793144D03*
D12*
%TO.P,U1,29,F0*%
%TO.N,unconnected-(U1-F0-Pad29)*%
X139934880Y-61573143D03*
D11*
X139934878Y-60273142D03*
D12*
%TO.P,U1,28,F1*%
%TO.N,unconnected-(U1-F1-Pad28)*%
X137394880Y-61573143D03*
D11*
X137394881Y-60273143D03*
D12*
%TO.P,U1,27,C7*%
%TO.N,unconnected-(U1-C7-Pad27)*%
X134854882Y-61573142D03*
D11*
X134854881Y-60273143D03*
D12*
%TO.P,U1,26,D5*%
%TO.N,unconnected-(U1-D5-Pad26)*%
X132314880Y-61573143D03*
D11*
X132314880Y-60273142D03*
D12*
%TO.P,U1,25,B7*%
%TO.N,unconnected-(U1-B7-Pad25)*%
X129774880Y-61573141D03*
D11*
X129774880Y-60273140D03*
D13*
%TO.P,U1,24,B6*%
%TO.N,/B6*%
X143774880Y-60273143D03*
D11*
X142474880Y-60273143D03*
D13*
%TO.P,U1,23,B2*%
%TO.N,/B2*%
X143774881Y-57733146D03*
D11*
X142474881Y-57733143D03*
D13*
%TO.P,U1,22,B3*%
%TO.N,/B3*%
X143774879Y-55193142D03*
D11*
X142474881Y-55193145D03*
D13*
%TO.P,U1,21,B1*%
%TO.N,/B1*%
X143774880Y-52653142D03*
D11*
X142474881Y-52653143D03*
D13*
%TO.P,U1,20,F7*%
%TO.N,/F7*%
X143774881Y-50113146D03*
D11*
X142474881Y-50113142D03*
D13*
%TO.P,U1,19,F6*%
%TO.N,/F6*%
X143774880Y-47573140D03*
D11*
X142474880Y-47573143D03*
D13*
%TO.P,U1,18,F5*%
%TO.N,/F5*%
X143774881Y-45033143D03*
D11*
X142474880Y-45033143D03*
D13*
%TO.P,U1,17,F4*%
%TO.N,/F4*%
X143774881Y-42493146D03*
D11*
X142474880Y-42493141D03*
D13*
%TO.P,U1,16,VCC*%
%TO.N,unconnected-(U1-VCC-Pad16)*%
X143774880Y-39953143D03*
D11*
X142474881Y-39953143D03*
D13*
%TO.P,U1,15,RST*%
%TO.N,unconnected-(U1-RST-Pad15)*%
X143774883Y-37413144D03*
D11*
X142474882Y-37413145D03*
D13*
%TO.P,U1,14,GND*%
%TO.N,unconnected-(U1-GND-Pad14)*%
X143774879Y-34873143D03*
D14*
X142474878Y-34873143D03*
D13*
%TO.P,U1,13,B0*%
%TO.N,unconnected-(U1-B0-Pad13)*%
X143774880Y-32333143D03*
D11*
X142474880Y-32333143D03*
%TO.P,U1,12,B5*%
%TO.N,unconnected-(U1-B5-Pad12)*%
X127234880Y-60273143D03*
D13*
X125934880Y-60273143D03*
D11*
%TO.P,U1,11,B4*%
%TO.N,unconnected-(U1-B4-Pad11)*%
X127234882Y-57733143D03*
D13*
X125934881Y-57733143D03*
D11*
%TO.P,U1,10,E6*%
%TO.N,/E6*%
X127234878Y-55193141D03*
D13*
X125934877Y-55193142D03*
D11*
%TO.P,U1,9,D7*%
%TO.N,/D7*%
X127234879Y-52653143D03*
D13*
X125934880Y-52653143D03*
D11*
%TO.P,U1,8,C6*%
%TO.N,/C6*%
X127234880Y-50113145D03*
D13*
X125934879Y-50113140D03*
D11*
%TO.P,U1,7,D4*%
%TO.N,/D4*%
X127234880Y-47573143D03*
D13*
X125934879Y-47573143D03*
D11*
%TO.P,U1,6,D0*%
%TO.N,/D0*%
X127234880Y-45033143D03*
D13*
X125934880Y-45033146D03*
D11*
%TO.P,U1,5,D1*%
%TO.N,/D1*%
X127234879Y-42493144D03*
D13*
X125934879Y-42493140D03*
D14*
%TO.P,U1,4,GND*%
%TO.N,unconnected-(U1-GND-Pad4)*%
X127234879Y-39953143D03*
D13*
X125934880Y-39953144D03*
D14*
%TO.P,U1,3,GND*%
%TO.N,unconnected-(U1-GND-Pad3)*%
X127234879Y-37413141D03*
D13*
X125934881Y-37413144D03*
D11*
%TO.P,U1,2,D2-RX*%
%TO.N,unconnected-(U1-D2-RX-Pad2)*%
X127234879Y-34873143D03*
D13*
X125934879Y-34873140D03*
D11*
%TO.P,U1,1,D3-TX*%
%TO.N,unconnected-(U1-D3-TX-Pad1)*%
X127234880Y-32333143D03*
D13*
X125934880Y-32333143D03*
%TD*%
D10*
%TO.P,SW4,2,2*%
%TO.N,Net-(D4-A)*%
X95083620Y-28896159D03*
%TO.P,SW4,1,1*%
%TO.N,/D0*%
X88502901Y-30758489D03*
%TD*%
%TO.P,SW14,2,2*%
%TO.N,Net-(D14-A)*%
X93092354Y-47841805D03*
%TO.P,SW14,1,1*%
%TO.N,/D0*%
X86511635Y-49704135D03*
%TD*%
%TO.P,SW18,2,2*%
%TO.N,Net-(D18-A)*%
X200773974Y-45319535D03*
%TO.P,SW18,1,1*%
%TO.N,/F6*%
X194724261Y-48509377D03*
%TD*%
%TO.P,SW10,2,2*%
%TO.N,Net-(D10-A)*%
X242249257Y-23363768D03*
%TO.P,SW10,1,1*%
%TO.N,/B1*%
X235899255Y-25903768D03*
%TD*%
%TO.P,SW31,2,2*%
%TO.N,Net-(D31-A)*%
X81424757Y-86262802D03*
%TO.P,SW31,1,1*%
%TO.N,/D0*%
X74730161Y-87661548D03*
%TD*%
%TO.P,SW13,2,2*%
%TO.N,Net-(D13-A)*%
X74146711Y-45850535D03*
%TO.P,SW13,1,1*%
%TO.N,/D4*%
X67565992Y-47712865D03*
%TD*%
%TO.P,SW21,2,2*%
%TO.N,Net-(D21-A)*%
X32699256Y-61463768D03*
%TO.P,SW21,1,1*%
%TO.N,/D7*%
X26349254Y-64003768D03*
%TD*%
%TO.P,SW19,2,2*%
%TO.N,Net-(D19-A)*%
X219719614Y-43328266D03*
%TO.P,SW19,1,1*%
%TO.N,/F7*%
X213669901Y-46518108D03*
%TD*%
%TO.P,SW34,1,1*%
%TO.N,/F5*%
X187634113Y-88984744D03*
%TO.P,SW34,2,2*%
%TO.N,Net-(D34-A)*%
X193446576Y-85380666D03*
%TD*%
%TO.P,SW11,2,2*%
%TO.N,Net-(D11-A)*%
X32699257Y-42413765D03*
%TO.P,SW11,1,1*%
%TO.N,/D7*%
X26349255Y-44953765D03*
%TD*%
%TO.P,SW20,2,2*%
%TO.N,Net-(D20-A)*%
X242249257Y-42413770D03*
%TO.P,SW20,1,1*%
%TO.N,/B1*%
X235899255Y-44953770D03*
%TD*%
%TO.P,SW3,2,2*%
%TO.N,Net-(D3-A)*%
X76137978Y-26904896D03*
%TO.P,SW3,1,1*%
%TO.N,/D4*%
X69557259Y-28767226D03*
%TD*%
%TO.P,SW12,2,2*%
%TO.N,Net-(D12-A)*%
X55201068Y-43859272D03*
%TO.P,SW12,1,1*%
%TO.N,/C6*%
X48620349Y-45721602D03*
%TD*%
%TO.P,SW16,2,2*%
%TO.N,Net-(D16-A)*%
X162882689Y-49302066D03*
%TO.P,SW16,1,1*%
%TO.N,/F4*%
X156832976Y-52491908D03*
%TD*%
%TO.P,SW9,2,2*%
%TO.N,Net-(D9-A)*%
X217728346Y-24382623D03*
%TO.P,SW9,1,1*%
%TO.N,/F7*%
X211678633Y-27572465D03*
%TD*%
%TO.P,SW2,2,2*%
%TO.N,Net-(D2-A)*%
X57192337Y-24913628D03*
%TO.P,SW2,1,1*%
%TO.N,/C6*%
X50611618Y-26775958D03*
%TD*%
%TO.P,SW27,2,2*%
%TO.N,Net-(D27-A)*%
X183819599Y-66256442D03*
%TO.P,SW27,1,1*%
%TO.N,/F5*%
X177769886Y-69446284D03*
%TD*%
%TO.P,SW30,2,2*%
%TO.N,Net-(D30-A)*%
X242249256Y-61463768D03*
%TO.P,SW30,1,1*%
%TO.N,/B1*%
X235899254Y-64003768D03*
%TD*%
D15*
%TO.N,/E6*%
X119120161Y-49667298D03*
%TO.N,/B6*%
X154453315Y-99953142D03*
%TO.N,/B2*%
X157586264Y-81543220D03*
%TO.N,/B3*%
X153702287Y-61715588D03*
%TO.N,/B1*%
X153639585Y-44377161D03*
X231709554Y-36171677D03*
%TO.N,/F7*%
X153063928Y-43683534D03*
X208259893Y-37882204D03*
%TO.N,/F6*%
X188788320Y-39174618D03*
X152488271Y-42989907D03*
%TO.N,/F5*%
X170311269Y-40362503D03*
X151975539Y-42289666D03*
%TO.N,/D7*%
X30855592Y-35614154D03*
X108925561Y-43819638D03*
%TO.N,/C6*%
X54580016Y-37102183D03*
X109268054Y-42874694D03*
%TO.N,/D4*%
X72808437Y-38263936D03*
X109599336Y-42146506D03*
%TO.N,/D0*%
X92280010Y-39556349D03*
X109913418Y-41410737D03*
%TD*%
D16*
%TO.N,/E6*%
X123377214Y-54924321D02*
X119120161Y-49667298D01*
X125934877Y-55193142D02*
X123377214Y-54924321D01*
%TO.N,/B6*%
X148703546Y-61989601D02*
X152544967Y-98538280D01*
X143774880Y-60273143D02*
X146261193Y-60011822D01*
X146261193Y-60011822D02*
X148703546Y-61989601D01*
X152544967Y-98538280D02*
X154310689Y-99968133D01*
X154310689Y-99968133D02*
X154453315Y-99953142D01*
%TO.N,/B2*%
X150915089Y-61505780D02*
X152596413Y-77502519D01*
X143774881Y-57733146D02*
X145971205Y-57502303D01*
X145971205Y-57502303D02*
X150915089Y-61505780D01*
X152596413Y-77502519D02*
X157586264Y-81543220D01*
%TO.N,/B3*%
X147172994Y-54835986D02*
X153519363Y-59975175D01*
X143774878Y-55193143D02*
X147172994Y-54835986D01*
X153519363Y-59975175D02*
X153702287Y-61715588D01*
%TO.N,/B1*%
X235899255Y-25903768D02*
X235899254Y-30955157D01*
X231709554Y-36171677D02*
X235903224Y-30992926D01*
%TO.N,/F6*%
X188788320Y-39174618D02*
X193173919Y-33758853D01*
%TO.N,/F5*%
X170311269Y-40362503D02*
X174207371Y-35551215D01*
%TO.N,/B1*%
X143774880Y-52653143D02*
X147232076Y-52289774D01*
X147232076Y-52289774D02*
X153639585Y-44377161D01*
%TO.N,/F7*%
X143774881Y-50113145D02*
X148237120Y-49644146D01*
X148237120Y-49644146D02*
X153063928Y-43683534D01*
%TO.N,/F6*%
X143774880Y-47573141D02*
X149242172Y-46998505D01*
X149242172Y-46998505D02*
X152488271Y-42989907D01*
%TO.N,/F5*%
X143774880Y-45033141D02*
X150310142Y-44346260D01*
X150310142Y-44346260D02*
X151975539Y-42289666D01*
%TO.N,/B1*%
X235899254Y-44953768D02*
X235899254Y-30955157D01*
%TO.N,/F7*%
X211678635Y-27572462D02*
X212112000Y-31695659D01*
X212244994Y-32961014D02*
X208259893Y-37882204D01*
X212112000Y-31695659D02*
X213669899Y-46518109D01*
%TO.N,/F6*%
X194724261Y-48509375D02*
X193140227Y-33438296D01*
X193140227Y-33438296D02*
X192732993Y-29563730D01*
%TO.N,/F5*%
X174194584Y-35429562D02*
X175778621Y-50500639D01*
X173787350Y-31555001D02*
X174194584Y-35429562D01*
%TO.N,/F4*%
X155222810Y-37172199D02*
X156832977Y-52491905D01*
X154841709Y-33546265D02*
X155222810Y-37172199D01*
X151578140Y-41672991D02*
X143774881Y-42493146D01*
X155222810Y-37172199D02*
X151578140Y-41672991D01*
%TO.N,/D7*%
X108925561Y-43819638D02*
X117130367Y-44681997D01*
X117130367Y-44681997D02*
X123360321Y-52375351D01*
X30799222Y-35608229D02*
X30855592Y-35614154D01*
X26349255Y-30112977D02*
X30799222Y-35608229D01*
X26349255Y-30112977D02*
X26349255Y-44953767D01*
X123615320Y-52409347D02*
X125934879Y-52653143D01*
X26349255Y-25903765D02*
X26349255Y-30112977D01*
X123360321Y-52375351D02*
X123608951Y-52401484D01*
%TO.N,/C6*%
X109268054Y-42874694D02*
X119245684Y-43923384D01*
X124102052Y-49920499D02*
X125934879Y-50113139D01*
X119245684Y-43923384D02*
X124102052Y-49920499D01*
X50611616Y-26775958D02*
X50156409Y-31106947D01*
X50156409Y-31106947D02*
X48620351Y-45721601D01*
X50106869Y-31578306D02*
X54580016Y-37102183D01*
%TO.N,/D4*%
X69154319Y-32600954D02*
X67565992Y-47712870D01*
X69047286Y-33619302D02*
X72808437Y-38263936D01*
X69557260Y-28767226D02*
X69154319Y-32600954D01*
X109599336Y-42146506D02*
X120559377Y-43298453D01*
X120559377Y-43298453D02*
X123842900Y-47353267D01*
X123842900Y-47353267D02*
X125934879Y-47573143D01*
%TO.N,/D0*%
X92104931Y-39537948D02*
X92280010Y-39556349D01*
X88099959Y-34592221D02*
X92104931Y-39537948D01*
X88099959Y-34592221D02*
X86511634Y-49704132D01*
X109913418Y-41410737D02*
X121370698Y-42614946D01*
X123086486Y-44733767D02*
X125934880Y-45033146D01*
X88099959Y-34592221D02*
X88502901Y-30758492D01*
%TO.N,/D1*%
X106993337Y-37080749D02*
X105457276Y-51695401D01*
X106993337Y-37080749D02*
X110021816Y-40820610D01*
X107448543Y-32749757D02*
X106993337Y-37080749D01*
X110021816Y-40820610D02*
X125934879Y-42493140D01*
%TO.N,/F5*%
X187634113Y-88984745D02*
X179096839Y-82071396D01*
X179096839Y-82071396D02*
X177769888Y-69446284D01*
%TO.N,/F4*%
X159493231Y-93946743D02*
X157998469Y-79725026D01*
X158824243Y-71437551D02*
X159500359Y-77870347D01*
%TO.N,/D1*%
X103466011Y-70641046D02*
X102903774Y-75990384D01*
X104422181Y-77865459D02*
X102871043Y-92623543D01*
%TO.N,/D0*%
X84520370Y-68649776D02*
X83247039Y-80764718D01*
X83247039Y-80764718D02*
X74730162Y-87661548D01*
%TO.N,/C6*%
X48620351Y-45721601D02*
X46629085Y-64667240D01*
%TO.N,/D4*%
X67565992Y-47712870D02*
X65574725Y-66658507D01*
%TO.N,/D0*%
X86511635Y-49704136D02*
X84520368Y-68649777D01*
%TO.N,/D1*%
X105457274Y-51695402D02*
X103466008Y-70641044D01*
%TO.N,/F4*%
X156832976Y-52491907D02*
X158824243Y-71437553D01*
%TO.N,/F5*%
X175778621Y-50500639D02*
X177769885Y-69446280D01*
%TO.N,/F6*%
X196715528Y-67455017D02*
X194724261Y-48509375D01*
%TO.N,/F7*%
X213669899Y-46518109D02*
X215661170Y-65463748D01*
%TO.N,/D7*%
X26349255Y-44953767D02*
X26349258Y-64003768D01*
%TO.N,/B1*%
X235899255Y-64003768D02*
X235899254Y-44953768D01*
%TO.N,/F7*%
X212112000Y-31695659D02*
X212244994Y-32961014D01*
%TO.N,/D0*%
X121370698Y-42614946D02*
X123086486Y-44733767D01*
%TO.N,/F4*%
X157998469Y-79725026D02*
X159500359Y-77870347D01*
%TO.N,/D1*%
X102903774Y-75990384D02*
X104422181Y-77865459D01*
%TO.N,/F4*%
X156832977Y-52491905D02*
X156832976Y-52491907D01*
%TO.N,/D1*%
X105457276Y-51695401D02*
X105457274Y-51695402D01*
%TO.N,/D0*%
X86511634Y-49704132D02*
X86511635Y-49704136D01*
X84520368Y-68649777D02*
X84520369Y-68649777D01*
%TO.N,/D4*%
X69154319Y-32600954D02*
X69047286Y-33619302D01*
%TO.N,/C6*%
X50156409Y-31106947D02*
X50106869Y-31578306D01*
%TO.N,/D7*%
X123608951Y-52401484D02*
X123615320Y-52409347D01*
%TO.N,/F5*%
X174207371Y-35551215D02*
X174194584Y-35429562D01*
%TO.N,/F6*%
X193173919Y-33758853D02*
X193140227Y-33438296D01*
%TO.N,/B1*%
X235903224Y-30992926D02*
X235899254Y-30955157D01*
%TD*%
M02*
