M48
; DRILL file {KiCad 8.0.4} date 2024-12-12T17:25:16-0500
; FORMAT={-:-/ absolute / inch / decimal}
; #@! TF.CreationDate,2024-12-12T17:25:16-05:00
; #@! TF.GenerationSoftware,Kicad,Pcbnew,8.0.4
; #@! TF.FileFunction,NonPlated,1,2,NPTH
FMAT,2
INCH
; #@! TA.AperFunction,NonPlated,NPTH,ComponentDrill
T1C0.0689
; #@! TA.AperFunction,NonPlated,NPTH,ComponentDrill
T2C0.1570
%
G90
G05
T1
X0.9874Y-1.1198
X0.9874Y-2.6198
X0.9874Y-1.8698
X1.3874Y-1.1198
X1.3874Y-2.6198
X1.3874Y-1.8698
X1.7756Y-2.6402
X1.854Y-1.8943
X1.9324Y-1.1484
X2.1734Y-2.682
X2.2518Y-1.9361
X2.3302Y-1.1902
X2.5215Y-2.7186
X2.5999Y-1.9727
X2.6783Y-1.2268
X2.8755Y-3.541
X2.9193Y-2.7604
X2.9977Y-2.0145
X3.0761Y-1.2686
X3.2674Y-2.797
X3.2695Y-3.6105
X3.3458Y-2.0511
X3.4242Y-1.3052
X3.6652Y-2.8388
X3.7436Y-2.0929
X3.822Y-1.347
X3.9834Y-3.7364
X4.0133Y-2.8754
X4.0917Y-2.1295
X4.1701Y-1.3836
X4.3774Y-3.8059
X4.4111Y-2.9172
X4.4895Y-2.1713
X4.5679Y-1.4254
X6.0569Y-1.4254
X6.1353Y-2.1713
X6.2136Y-2.9172
X6.2474Y-3.8059
X6.4547Y-1.3836
X6.5331Y-2.1295
X6.6115Y-2.8754
X6.6413Y-3.7364
X6.8027Y-1.347
X6.8811Y-2.0929
X6.9595Y-2.8388
X7.2006Y-1.3052
X7.279Y-2.0511
X7.3553Y-3.6105
X7.3573Y-2.797
X7.5486Y-1.2686
X7.627Y-2.0145
X7.7054Y-2.7604
X7.7492Y-3.541
X7.9464Y-1.2268
X8.0248Y-1.9727
X8.1032Y-2.7186
X8.2945Y-1.1902
X8.3729Y-1.9361
X8.4513Y-2.682
X8.6923Y-1.1484
X8.7707Y-1.8943
X8.8491Y-2.6402
X9.2374Y-2.6198
X9.2374Y-1.1198
X9.2374Y-1.8698
X9.6374Y-2.6198
X9.6374Y-1.1198
X9.6374Y-1.8698
T2
X1.1874Y-1.1198
X1.1874Y-2.6198
X1.1874Y-1.8698
X1.9745Y-2.6611
X2.0529Y-1.9152
X2.1313Y-1.1693
X2.7204Y-2.7395
X2.7988Y-1.9936
X2.8772Y-1.2477
X3.0725Y-3.5758
X3.4663Y-2.8179
X3.5447Y-2.072
X3.6231Y-1.3261
X4.1804Y-3.7711
X4.2122Y-2.8963
X4.2906Y-2.1504
X4.369Y-1.4045
X6.2558Y-1.4045
X6.3342Y-2.1504
X6.4126Y-2.8963
X6.4443Y-3.7711
X7.0017Y-1.3261
X7.08Y-2.072
X7.1584Y-2.8179
X7.5523Y-3.5758
X7.7475Y-1.2477
X7.8259Y-1.9936
X7.9043Y-2.7395
X8.4934Y-1.1693
X8.5718Y-1.9152
X8.6502Y-2.6611
X9.4374Y-2.6198
X9.4374Y-1.1198
X9.4374Y-1.8698
M30
