%TF.GenerationSoftware,KiCad,Pcbnew,8.0.4*%
%TF.CreationDate,2024-12-12T17:25:20-05:00*%
%TF.ProjectId,babier-v,62616269-6572-42d7-962e-6b696361645f,rev?*%
%TF.SameCoordinates,Original*%
%TF.FileFunction,Legend,Bot*%
%TF.FilePolarity,Positive*%
%FSLAX46Y46*%
G04 Gerber Fmt 4.6, Leading zero omitted, Abs format (unit mm)*
G04 Created by KiCad (PCBNEW 8.0.4) date 2024-12-12 17:25:20*
%MOMM*%
%LPD*%
G01*
G04 APERTURE LIST*
%ADD10C,0.120000*%
G04 APERTURE END LIST*
D10*
%TO.C,D24*%
X92200927Y-71206601D02*
X91781768Y-75194634D01*
X90211883Y-70997545D02*
X89792724Y-74985578D01*
X89792724Y-74985578D02*
X91781768Y-75194634D01*
%TO.C,D7*%
X181831665Y-32459071D02*
X182250824Y-36447106D01*
X180261780Y-36656165D02*
X182250824Y-36447106D01*
X179842621Y-32668129D02*
X180261780Y-36656165D01*
%TO.C,D25*%
X111146569Y-73197867D02*
X110727410Y-77185900D01*
X109157525Y-72988811D02*
X108738366Y-76976844D01*
X108738366Y-76976844D02*
X110727410Y-77185900D01*
%TO.C,D4*%
X96183461Y-33315317D02*
X95764302Y-37303350D01*
X94194417Y-33106261D02*
X93775258Y-37094294D01*
X93775258Y-37094294D02*
X95764302Y-37303350D01*
%TO.C,D16*%
X164877290Y-53395981D02*
X165296449Y-57384016D01*
X163307405Y-57593075D02*
X165296449Y-57384016D01*
X162888246Y-53605039D02*
X163307405Y-57593075D01*
%TO.C,D23*%
X73255285Y-69215335D02*
X72836126Y-73203368D01*
X71266241Y-69006279D02*
X70847082Y-72994312D01*
X70847082Y-72994312D02*
X72836126Y-73203368D01*
%TO.C,D18*%
X202768574Y-49413447D02*
X203187733Y-53401482D01*
X201198689Y-53610541D02*
X203187733Y-53401482D01*
X200779530Y-49622505D02*
X201198689Y-53610541D01*
%TO.C,D32*%
X110354533Y-95709910D02*
X109658204Y-99658986D01*
X108384918Y-95362614D02*
X107688589Y-99311693D01*
X107688589Y-99311693D02*
X109658204Y-99658986D01*
%TO.C,D1*%
X34254998Y-27643750D02*
X34254998Y-31653750D01*
X32254998Y-31653750D02*
X34254998Y-31653750D01*
X32254998Y-27643750D02*
X32254998Y-31653750D01*
%TO.C,D29*%
X223705484Y-66367822D02*
X224124643Y-70355857D01*
X222135599Y-70564916D02*
X224124643Y-70355857D01*
X221716440Y-66576880D02*
X222135599Y-70564916D01*
%TO.C,D15*%
X113137837Y-54252225D02*
X112718678Y-58240258D01*
X111148793Y-54043169D02*
X110729634Y-58031202D01*
X110729634Y-58031202D02*
X112718678Y-58240258D01*
%TO.C,D11*%
X34255000Y-46693750D02*
X34255000Y-50703750D01*
X32255000Y-50703750D02*
X34255000Y-50703750D01*
X32255000Y-46693750D02*
X32255000Y-50703750D01*
%TO.C,D19*%
X221714218Y-47422181D02*
X222133377Y-51410216D01*
X220144333Y-51619275D02*
X222133377Y-51410216D01*
X219725174Y-47631239D02*
X220144333Y-51619275D01*
%TO.C,D20*%
X243805000Y-46693748D02*
X243805000Y-50703748D01*
X241805000Y-50703748D02*
X243805000Y-50703748D01*
X241805000Y-46693748D02*
X241805000Y-50703748D01*
%TO.C,D10*%
X243805000Y-27643750D02*
X243805000Y-31653750D01*
X241805000Y-31653750D02*
X243805000Y-31653750D01*
X241805000Y-27643750D02*
X241805000Y-31653750D01*
%TO.C,D33*%
X167581017Y-94287468D02*
X168277346Y-98236545D01*
X166307731Y-98583838D02*
X168277346Y-98236545D01*
X165611402Y-94634764D02*
X166307731Y-98583838D01*
%TO.C,D17*%
X183822933Y-51404713D02*
X184242092Y-55392748D01*
X182253048Y-55601807D02*
X184242092Y-55392748D01*
X181833889Y-51613771D02*
X182253048Y-55601807D01*
%TO.C,D13*%
X75246552Y-50269690D02*
X74827393Y-54257723D01*
X73257508Y-50060634D02*
X72838349Y-54048667D01*
X72838349Y-54048667D02*
X74827393Y-54257723D01*
%TO.C,D21*%
X34255001Y-65743748D02*
X34255001Y-69753748D01*
X32255001Y-69753748D02*
X34255001Y-69753748D01*
X32255001Y-65743748D02*
X32255001Y-69753748D01*
%TO.C,D12*%
X56300910Y-48278425D02*
X55881751Y-52266458D01*
X54311866Y-48069369D02*
X53892707Y-52057402D01*
X53892707Y-52057402D02*
X55881751Y-52266458D01*
%TO.C,D2*%
X58292176Y-29332782D02*
X57873017Y-33320815D01*
X56303132Y-29123726D02*
X55883973Y-33111759D01*
X55883973Y-33111759D02*
X57873017Y-33320815D01*
%TO.C,D27*%
X185814202Y-70350354D02*
X186233361Y-74338389D01*
X184244317Y-74547448D02*
X186233361Y-74338389D01*
X183825158Y-70559412D02*
X184244317Y-74547448D01*
%TO.C,D30*%
X243804999Y-65743749D02*
X243804999Y-69753749D01*
X241804999Y-69753749D02*
X243804999Y-69753749D01*
X241804999Y-65743749D02*
X241804999Y-69753749D01*
%TO.C,D5*%
X115129103Y-35306584D02*
X114709944Y-39294617D01*
X113140059Y-35097528D02*
X112720900Y-39085561D01*
X112720900Y-39085561D02*
X114709944Y-39294617D01*
%TO.C,D34*%
X193752282Y-89672773D02*
X194448611Y-93621847D01*
X194448611Y-93621847D02*
X196418226Y-93274554D01*
X195721897Y-89325477D02*
X196418226Y-93274554D01*
%TO.C,D3*%
X77237820Y-31324049D02*
X76818661Y-35312082D01*
X75248776Y-31114993D02*
X74829617Y-35103026D01*
X74829617Y-35103026D02*
X76818661Y-35312082D01*
%TO.C,D14*%
X94192195Y-52260957D02*
X93773036Y-56248990D01*
X92203151Y-52051901D02*
X91783992Y-56039934D01*
X91783992Y-56039934D02*
X93773036Y-56248990D01*
%TO.C,D22*%
X54309642Y-67224067D02*
X53890483Y-71212100D01*
X52320598Y-67015011D02*
X51901439Y-71003044D01*
X51901439Y-71003044D02*
X53890483Y-71212100D01*
%TO.C,D28*%
X204759842Y-68359089D02*
X205179001Y-72347124D01*
X203189957Y-72556183D02*
X205179001Y-72347124D01*
X202770798Y-68568147D02*
X203189957Y-72556183D01*
%TO.C,D26*%
X166868557Y-72341625D02*
X167287716Y-76329660D01*
X165298672Y-76538719D02*
X167287716Y-76329660D01*
X164879513Y-72550683D02*
X165298672Y-76538719D01*
%TO.C,D9*%
X219722949Y-28476538D02*
X220142108Y-32464573D01*
X218153064Y-32673632D02*
X220142108Y-32464573D01*
X217733905Y-28685596D02*
X218153064Y-32673632D01*
%TO.C,D8*%
X200777309Y-30467805D02*
X201196468Y-34455840D01*
X199207424Y-34664899D02*
X201196468Y-34455840D01*
X198788265Y-30676863D02*
X199207424Y-34664899D01*
%TO.C,D31*%
X82213653Y-90747910D02*
X81517324Y-94696986D01*
X80244038Y-90400614D02*
X79547709Y-94349693D01*
X79547709Y-94349693D02*
X81517324Y-94696986D01*
%TO.C,D6*%
X162886024Y-34450338D02*
X163305183Y-38438373D01*
X161316139Y-38647432D02*
X163305183Y-38438373D01*
X160896980Y-34659396D02*
X161316139Y-38647432D01*
%TD*%
M02*
