%TF.GenerationSoftware,KiCad,Pcbnew,8.0.4*%
%TF.CreationDate,2024-12-12T17:25:20-05:00*%
%TF.ProjectId,babier-v,62616269-6572-42d7-962e-6b696361645f,rev?*%
%TF.SameCoordinates,Original*%
%TF.FileFunction,Paste,Bot*%
%TF.FilePolarity,Positive*%
%FSLAX46Y46*%
G04 Gerber Fmt 4.6, Leading zero omitted, Abs format (unit mm)*
G04 Created by KiCad (PCBNEW 8.0.4) date 2024-12-12 17:25:20*
%MOMM*%
%LPD*%
G01*
G04 APERTURE LIST*
G04 Aperture macros list*
%AMRoundRect*
0 Rectangle with rounded corners*
0 $1 Rounding radius*
0 $2 $3 $4 $5 $6 $7 $8 $9 X,Y pos of 4 corners*
0 Add a 4 corners polygon primitive as box body*
4,1,4,$2,$3,$4,$5,$6,$7,$8,$9,$2,$3,0*
0 Add four circle primitives for the rounded corners*
1,1,$1+$1,$2,$3*
1,1,$1+$1,$4,$5*
1,1,$1+$1,$6,$7*
1,1,$1+$1,$8,$9*
0 Add four rect primitives between the rounded corners*
20,1,$1+$1,$2,$3,$4,$5,0*
20,1,$1+$1,$4,$5,$6,$7,0*
20,1,$1+$1,$6,$7,$8,$9,0*
20,1,$1+$1,$8,$9,$2,$3,0*%
G04 Aperture macros list end*
%ADD10RoundRect,0.225000X0.349427X-0.262966X0.396465X0.184569X-0.349427X0.262966X-0.396465X-0.184569X0*%
%ADD11RoundRect,0.225000X0.396465X-0.184569X0.349427X0.262966X-0.396465X0.184569X-0.349427X-0.262966X0*%
%ADD12RoundRect,0.225000X0.330232X-0.286700X0.408374X0.156464X-0.330232X0.286700X-0.408374X-0.156464X0*%
%ADD13RoundRect,0.225000X0.375000X-0.225000X0.375000X0.225000X-0.375000X0.225000X-0.375000X-0.225000X0*%
%ADD14RoundRect,0.225000X0.408374X-0.156464X0.330232X0.286700X-0.408374X0.156464X-0.330232X-0.286700X0*%
G04 APERTURE END LIST*
D10*
%TO.C,D24*%
X91206406Y-71102070D03*
X90861460Y-74383998D03*
%TD*%
D11*
%TO.C,D7*%
X180837141Y-32563599D03*
X181182089Y-35845525D03*
%TD*%
D10*
%TO.C,D25*%
X110152048Y-73093336D03*
X109807102Y-76375264D03*
%TD*%
%TO.C,D4*%
X95188940Y-33210786D03*
X94843994Y-36492714D03*
%TD*%
D11*
%TO.C,D16*%
X163882766Y-53500509D03*
X164227714Y-56782435D03*
%TD*%
D10*
%TO.C,D23*%
X72260764Y-69110804D03*
X71915818Y-72392732D03*
%TD*%
D11*
%TO.C,D18*%
X201774050Y-49517975D03*
X202118998Y-52799901D03*
%TD*%
D12*
%TO.C,D32*%
X109369725Y-95536262D03*
X108796687Y-98786128D03*
%TD*%
D13*
%TO.C,D1*%
X33254998Y-27643750D03*
X33254998Y-30943750D03*
%TD*%
D11*
%TO.C,D29*%
X222710960Y-66472350D03*
X223055908Y-69754276D03*
%TD*%
D10*
%TO.C,D15*%
X112143316Y-54147694D03*
X111798370Y-57429622D03*
%TD*%
D13*
%TO.C,D11*%
X33255000Y-46693750D03*
X33255000Y-49993750D03*
%TD*%
D11*
%TO.C,D19*%
X220719694Y-47526709D03*
X221064642Y-50808635D03*
%TD*%
D13*
%TO.C,D20*%
X242805000Y-46693748D03*
X242805000Y-49993748D03*
%TD*%
%TO.C,D10*%
X242805000Y-27643750D03*
X242805000Y-30943750D03*
%TD*%
D14*
%TO.C,D33*%
X166596209Y-94461116D03*
X167169249Y-97710982D03*
%TD*%
D11*
%TO.C,D17*%
X182828409Y-51509241D03*
X183173357Y-54791167D03*
%TD*%
D10*
%TO.C,D13*%
X74252031Y-50165159D03*
X73907085Y-53447087D03*
%TD*%
D13*
%TO.C,D21*%
X33255001Y-65743748D03*
X33255001Y-69043748D03*
%TD*%
D10*
%TO.C,D12*%
X55306389Y-48173894D03*
X54961443Y-51455822D03*
%TD*%
%TO.C,D2*%
X57297655Y-29228251D03*
X56952709Y-32510179D03*
%TD*%
D11*
%TO.C,D27*%
X184819678Y-70454882D03*
X185164626Y-73736808D03*
%TD*%
D13*
%TO.C,D30*%
X242804999Y-65743749D03*
X242804999Y-69043749D03*
%TD*%
D10*
%TO.C,D5*%
X114134582Y-35202053D03*
X113789636Y-38483981D03*
%TD*%
D14*
%TO.C,D34*%
X195310129Y-92748991D03*
X194737089Y-89499125D03*
%TD*%
D10*
%TO.C,D3*%
X76243299Y-31219518D03*
X75898353Y-34501446D03*
%TD*%
%TO.C,D14*%
X93197674Y-52156426D03*
X92852728Y-55438354D03*
%TD*%
%TO.C,D22*%
X53315121Y-67119536D03*
X52970175Y-70401464D03*
%TD*%
D11*
%TO.C,D28*%
X203765318Y-68463617D03*
X204110266Y-71745543D03*
%TD*%
%TO.C,D26*%
X165874033Y-72446153D03*
X166218981Y-75728079D03*
%TD*%
%TO.C,D9*%
X218728425Y-28581066D03*
X219073373Y-31862992D03*
%TD*%
%TO.C,D8*%
X199782785Y-30572333D03*
X200127733Y-33854259D03*
%TD*%
D12*
%TO.C,D31*%
X81228845Y-90574262D03*
X80655807Y-93824128D03*
%TD*%
D11*
%TO.C,D6*%
X161891500Y-34554866D03*
X162236448Y-37836792D03*
%TD*%
M02*
