%TF.GenerationSoftware,KiCad,Pcbnew,8.0.4*%
%TF.CreationDate,2024-12-12T17:25:20-05:00*%
%TF.ProjectId,babier-v,62616269-6572-42d7-962e-6b696361645f,rev?*%
%TF.SameCoordinates,Original*%
%TF.FileFunction,Copper,L2,Bot*%
%TF.FilePolarity,Positive*%
%FSLAX46Y46*%
G04 Gerber Fmt 4.6, Leading zero omitted, Abs format (unit mm)*
G04 Created by KiCad (PCBNEW 8.0.4) date 2024-12-12 17:25:20*
%MOMM*%
%LPD*%
G01*
G04 APERTURE LIST*
G04 Aperture macros list*
%AMRoundRect*
0 Rectangle with rounded corners*
0 $1 Rounding radius*
0 $2 $3 $4 $5 $6 $7 $8 $9 X,Y pos of 4 corners*
0 Add a 4 corners polygon primitive as box body*
4,1,4,$2,$3,$4,$5,$6,$7,$8,$9,$2,$3,0*
0 Add four circle primitives for the rounded corners*
1,1,$1+$1,$2,$3*
1,1,$1+$1,$4,$5*
1,1,$1+$1,$6,$7*
1,1,$1+$1,$8,$9*
0 Add four rect primitives between the rounded corners*
20,1,$1+$1,$2,$3,$4,$5,0*
20,1,$1+$1,$4,$5,$6,$7,0*
20,1,$1+$1,$6,$7,$8,$9,0*
20,1,$1+$1,$8,$9,$2,$3,0*%
G04 Aperture macros list end*
%TA.AperFunction,ComponentPad*%
%ADD10C,2.300000*%
%TD*%
%TA.AperFunction,SMDPad,CuDef*%
%ADD11RoundRect,0.225000X0.349427X-0.262966X0.396465X0.184569X-0.349427X0.262966X-0.396465X-0.184569X0*%
%TD*%
%TA.AperFunction,SMDPad,CuDef*%
%ADD12RoundRect,0.225000X0.396465X-0.184569X0.349427X0.262966X-0.396465X0.184569X-0.349427X-0.262966X0*%
%TD*%
%TA.AperFunction,SMDPad,CuDef*%
%ADD13RoundRect,0.225000X0.330232X-0.286700X0.408374X0.156464X-0.330232X0.286700X-0.408374X-0.156464X0*%
%TD*%
%TA.AperFunction,SMDPad,CuDef*%
%ADD14RoundRect,0.225000X0.375000X-0.225000X0.375000X0.225000X-0.375000X0.225000X-0.375000X-0.225000X0*%
%TD*%
%TA.AperFunction,ComponentPad*%
%ADD15C,1.800000*%
%TD*%
%TA.AperFunction,ComponentPad*%
%ADD16RoundRect,0.450000X-0.450000X-0.450000X0.450000X-0.450000X0.450000X0.450000X-0.450000X0.450000X0*%
%TD*%
%TA.AperFunction,SMDPad,CuDef*%
%ADD17RoundRect,0.225000X0.408374X-0.156464X0.330232X0.286700X-0.408374X0.156464X-0.330232X-0.286700X0*%
%TD*%
%TA.AperFunction,ViaPad*%
%ADD18C,0.600000*%
%TD*%
%TA.AperFunction,Conductor*%
%ADD19C,0.200000*%
%TD*%
G04 APERTURE END LIST*
D10*
%TO.P,SW7,2,2*%
%TO.N,Net-(D7-A)*%
X179837067Y-28365160D03*
%TO.P,SW7,1,1*%
%TO.N,/F5*%
X173787354Y-31555002D03*
%TD*%
D11*
%TO.P,D24,2,A*%
%TO.N,Net-(D24-A)*%
X91206406Y-71102070D03*
%TO.P,D24,1,K*%
%TO.N,/B2*%
X90861460Y-74383998D03*
%TD*%
D10*
%TO.P,SW26,2,2*%
%TO.N,Net-(D26-A)*%
X164873956Y-68247708D03*
%TO.P,SW26,1,1*%
%TO.N,/F4*%
X158824243Y-71437550D03*
%TD*%
D12*
%TO.P,D7,2,A*%
%TO.N,Net-(D7-A)*%
X180837141Y-32563599D03*
%TO.P,D7,1,K*%
%TO.N,/E6*%
X181182089Y-35845525D03*
%TD*%
D10*
%TO.P,SW23,2,2*%
%TO.N,Net-(D23-A)*%
X72155446Y-64796179D03*
%TO.P,SW23,1,1*%
%TO.N,/D4*%
X65574727Y-66658509D03*
%TD*%
D11*
%TO.P,D25,2,A*%
%TO.N,Net-(D25-A)*%
X110152048Y-73093336D03*
%TO.P,D25,1,K*%
%TO.N,/B2*%
X109807102Y-76375264D03*
%TD*%
D10*
%TO.P,SW28,2,2*%
%TO.N,Net-(D28-A)*%
X202765241Y-64265175D03*
%TO.P,SW28,1,1*%
%TO.N,/F6*%
X196715528Y-67455017D03*
%TD*%
%TO.P,SW8,2,2*%
%TO.N,Net-(D8-A)*%
X198782706Y-26373891D03*
%TO.P,SW8,1,1*%
%TO.N,/F6*%
X192732993Y-29563733D03*
%TD*%
%TO.P,SW15,2,2*%
%TO.N,Net-(D15-A)*%
X112037996Y-49833072D03*
%TO.P,SW15,1,1*%
%TO.N,/D1*%
X105457277Y-51695402D03*
%TD*%
D11*
%TO.P,D4,2,A*%
%TO.N,Net-(D4-A)*%
X95188940Y-33210786D03*
%TO.P,D4,1,K*%
%TO.N,/E6*%
X94843994Y-36492714D03*
%TD*%
D10*
%TO.P,SW5,2,2*%
%TO.N,Net-(D5-A)*%
X114029263Y-30887430D03*
%TO.P,SW5,1,1*%
%TO.N,/D1*%
X107448544Y-32749760D03*
%TD*%
%TO.P,SW1,2,2*%
%TO.N,Net-(D1-A)*%
X32699254Y-23363766D03*
%TO.P,SW1,1,1*%
%TO.N,/D7*%
X26349252Y-25903766D03*
%TD*%
D12*
%TO.P,D16,2,A*%
%TO.N,Net-(D16-A)*%
X163882766Y-53500509D03*
%TO.P,D16,1,K*%
%TO.N,/B3*%
X164227714Y-56782435D03*
%TD*%
D10*
%TO.P,SW24,2,2*%
%TO.N,Net-(D24-A)*%
X91101088Y-66787447D03*
%TO.P,SW24,1,1*%
%TO.N,/D0*%
X84520369Y-68649777D03*
%TD*%
D11*
%TO.P,D23,2,A*%
%TO.N,Net-(D23-A)*%
X72260764Y-69110804D03*
%TO.P,D23,1,K*%
%TO.N,/B2*%
X71915818Y-72392732D03*
%TD*%
D10*
%TO.P,SW6,2,2*%
%TO.N,Net-(D6-A)*%
X160891423Y-30356424D03*
%TO.P,SW6,1,1*%
%TO.N,/F4*%
X154841710Y-33546266D03*
%TD*%
D12*
%TO.P,D18,2,A*%
%TO.N,Net-(D18-A)*%
X201774050Y-49517975D03*
%TO.P,D18,1,K*%
%TO.N,/B3*%
X202118998Y-52799901D03*
%TD*%
D10*
%TO.P,SW25,2,2*%
%TO.N,Net-(D25-A)*%
X110046732Y-68778715D03*
%TO.P,SW25,1,1*%
%TO.N,/D1*%
X103466013Y-70641045D03*
%TD*%
%TO.P,SW33,1,1*%
%TO.N,/F4*%
X159493233Y-93946743D03*
%TO.P,SW33,2,2*%
%TO.N,Net-(D33-A)*%
X165305696Y-90342665D03*
%TD*%
%TO.P,SW22,2,2*%
%TO.N,Net-(D22-A)*%
X53209803Y-62804913D03*
%TO.P,SW22,1,1*%
%TO.N,/C6*%
X46629084Y-64667243D03*
%TD*%
%TO.P,SW17,2,2*%
%TO.N,Net-(D17-A)*%
X181828331Y-47310799D03*
%TO.P,SW17,1,1*%
%TO.N,/F5*%
X175778618Y-50500641D03*
%TD*%
D13*
%TO.P,D32,2,A*%
%TO.N,Net-(D32-A)*%
X109369725Y-95536262D03*
%TO.P,D32,1,K*%
%TO.N,/B6*%
X108796687Y-98786128D03*
%TD*%
D10*
%TO.P,SW32,2,2*%
%TO.N,Net-(D32-A)*%
X109565638Y-91224798D03*
%TO.P,SW32,1,1*%
%TO.N,/D1*%
X102871042Y-92623544D03*
%TD*%
%TO.P,SW29,2,2*%
%TO.N,Net-(D29-A)*%
X221710882Y-62273907D03*
%TO.P,SW29,1,1*%
%TO.N,/F7*%
X215661169Y-65463749D03*
%TD*%
D14*
%TO.P,D1,2,A*%
%TO.N,Net-(D1-A)*%
X33254998Y-27643750D03*
%TO.P,D1,1,K*%
%TO.N,/E6*%
X33254998Y-30943750D03*
%TD*%
D15*
%TO.P,U1,30,VBUS*%
%TO.N,unconnected-(U1-VBUS-Pad30)*%
X142474880Y-29793144D03*
%TO.P,U1,29,F0*%
%TO.N,unconnected-(U1-F0-Pad29)*%
X139934878Y-60273142D03*
%TO.P,U1,28,F1*%
%TO.N,unconnected-(U1-F1-Pad28)*%
X137394881Y-60273143D03*
%TO.P,U1,27,C7*%
%TO.N,unconnected-(U1-C7-Pad27)*%
X134854881Y-60273143D03*
%TO.P,U1,26,D5*%
%TO.N,unconnected-(U1-D5-Pad26)*%
X132314880Y-60273142D03*
%TO.P,U1,25,B7*%
%TO.N,unconnected-(U1-B7-Pad25)*%
X129774880Y-60273140D03*
%TO.P,U1,24,B6*%
%TO.N,/B6*%
X142474880Y-60273143D03*
%TO.P,U1,23,B2*%
%TO.N,/B2*%
X142474881Y-57733143D03*
%TO.P,U1,22,B3*%
%TO.N,/B3*%
X142474881Y-55193145D03*
%TO.P,U1,21,B1*%
%TO.N,/B1*%
X142474881Y-52653143D03*
%TO.P,U1,20,F7*%
%TO.N,/F7*%
X142474881Y-50113142D03*
%TO.P,U1,19,F6*%
%TO.N,/F6*%
X142474880Y-47573143D03*
%TO.P,U1,18,F5*%
%TO.N,/F5*%
X142474880Y-45033143D03*
%TO.P,U1,17,F4*%
%TO.N,/F4*%
X142474880Y-42493141D03*
%TO.P,U1,16,VCC*%
%TO.N,unconnected-(U1-VCC-Pad16)*%
X142474881Y-39953143D03*
%TO.P,U1,15,RST*%
%TO.N,unconnected-(U1-RST-Pad15)*%
X142474882Y-37413145D03*
D16*
%TO.P,U1,14,GND*%
%TO.N,unconnected-(U1-GND-Pad14)*%
X142474878Y-34873143D03*
D15*
%TO.P,U1,13,B0*%
%TO.N,unconnected-(U1-B0-Pad13)*%
X142474880Y-32333143D03*
%TO.P,U1,12,B5*%
%TO.N,unconnected-(U1-B5-Pad12)*%
X127234880Y-60273143D03*
%TO.P,U1,11,B4*%
%TO.N,unconnected-(U1-B4-Pad11)*%
X127234882Y-57733143D03*
%TO.P,U1,10,E6*%
%TO.N,/E6*%
X127234878Y-55193141D03*
%TO.P,U1,9,D7*%
%TO.N,/D7*%
X127234879Y-52653143D03*
%TO.P,U1,8,C6*%
%TO.N,/C6*%
X127234880Y-50113145D03*
%TO.P,U1,7,D4*%
%TO.N,/D4*%
X127234880Y-47573143D03*
%TO.P,U1,6,D0*%
%TO.N,/D0*%
X127234880Y-45033143D03*
%TO.P,U1,5,D1*%
%TO.N,/D1*%
X127234879Y-42493144D03*
D16*
%TO.P,U1,4,GND*%
%TO.N,unconnected-(U1-GND-Pad4)*%
X127234879Y-39953143D03*
%TO.P,U1,3,GND*%
%TO.N,unconnected-(U1-GND-Pad3)*%
X127234879Y-37413141D03*
D15*
%TO.P,U1,2,D2-RX*%
%TO.N,unconnected-(U1-D2-RX-Pad2)*%
X127234879Y-34873143D03*
%TO.P,U1,1,D3-TX*%
%TO.N,unconnected-(U1-D3-TX-Pad1)*%
X127234880Y-32333143D03*
%TD*%
D10*
%TO.P,SW4,2,2*%
%TO.N,Net-(D4-A)*%
X95083620Y-28896159D03*
%TO.P,SW4,1,1*%
%TO.N,/D0*%
X88502901Y-30758489D03*
%TD*%
D12*
%TO.P,D29,2,A*%
%TO.N,Net-(D29-A)*%
X222710960Y-66472350D03*
%TO.P,D29,1,K*%
%TO.N,/B2*%
X223055908Y-69754276D03*
%TD*%
D10*
%TO.P,SW14,2,2*%
%TO.N,Net-(D14-A)*%
X93092354Y-47841805D03*
%TO.P,SW14,1,1*%
%TO.N,/D0*%
X86511635Y-49704135D03*
%TD*%
%TO.P,SW18,2,2*%
%TO.N,Net-(D18-A)*%
X200773974Y-45319535D03*
%TO.P,SW18,1,1*%
%TO.N,/F6*%
X194724261Y-48509377D03*
%TD*%
D11*
%TO.P,D15,2,A*%
%TO.N,Net-(D15-A)*%
X112143316Y-54147694D03*
%TO.P,D15,1,K*%
%TO.N,/B3*%
X111798370Y-57429622D03*
%TD*%
D14*
%TO.P,D11,2,A*%
%TO.N,Net-(D11-A)*%
X33255000Y-46693750D03*
%TO.P,D11,1,K*%
%TO.N,/B3*%
X33255000Y-49993750D03*
%TD*%
D12*
%TO.P,D19,2,A*%
%TO.N,Net-(D19-A)*%
X220719694Y-47526709D03*
%TO.P,D19,1,K*%
%TO.N,/B3*%
X221064642Y-50808635D03*
%TD*%
D14*
%TO.P,D20,2,A*%
%TO.N,Net-(D20-A)*%
X242805000Y-46693748D03*
%TO.P,D20,1,K*%
%TO.N,/B3*%
X242805000Y-49993748D03*
%TD*%
D10*
%TO.P,SW10,2,2*%
%TO.N,Net-(D10-A)*%
X242249257Y-23363768D03*
%TO.P,SW10,1,1*%
%TO.N,/B1*%
X235899255Y-25903768D03*
%TD*%
D14*
%TO.P,D10,2,A*%
%TO.N,Net-(D10-A)*%
X242805000Y-27643750D03*
%TO.P,D10,1,K*%
%TO.N,/E6*%
X242805000Y-30943750D03*
%TD*%
D10*
%TO.P,SW31,2,2*%
%TO.N,Net-(D31-A)*%
X81424757Y-86262802D03*
%TO.P,SW31,1,1*%
%TO.N,/D0*%
X74730161Y-87661548D03*
%TD*%
%TO.P,SW13,2,2*%
%TO.N,Net-(D13-A)*%
X74146711Y-45850535D03*
%TO.P,SW13,1,1*%
%TO.N,/D4*%
X67565992Y-47712865D03*
%TD*%
%TO.P,SW21,2,2*%
%TO.N,Net-(D21-A)*%
X32699256Y-61463768D03*
%TO.P,SW21,1,1*%
%TO.N,/D7*%
X26349254Y-64003768D03*
%TD*%
D17*
%TO.P,D33,2,A*%
%TO.N,Net-(D33-A)*%
X166596209Y-94461116D03*
%TO.P,D33,1,K*%
%TO.N,/B6*%
X167169249Y-97710982D03*
%TD*%
D12*
%TO.P,D17,2,A*%
%TO.N,Net-(D17-A)*%
X182828409Y-51509241D03*
%TO.P,D17,1,K*%
%TO.N,/B3*%
X183173357Y-54791167D03*
%TD*%
D11*
%TO.P,D13,2,A*%
%TO.N,Net-(D13-A)*%
X74252031Y-50165159D03*
%TO.P,D13,1,K*%
%TO.N,/B3*%
X73907085Y-53447087D03*
%TD*%
D10*
%TO.P,SW19,2,2*%
%TO.N,Net-(D19-A)*%
X219719614Y-43328266D03*
%TO.P,SW19,1,1*%
%TO.N,/F7*%
X213669901Y-46518108D03*
%TD*%
D14*
%TO.P,D21,2,A*%
%TO.N,Net-(D21-A)*%
X33255001Y-65743748D03*
%TO.P,D21,1,K*%
%TO.N,/B2*%
X33255001Y-69043748D03*
%TD*%
D11*
%TO.P,D12,2,A*%
%TO.N,Net-(D12-A)*%
X55306389Y-48173894D03*
%TO.P,D12,1,K*%
%TO.N,/B3*%
X54961443Y-51455822D03*
%TD*%
D10*
%TO.P,SW34,1,1*%
%TO.N,/F5*%
X187634113Y-88984744D03*
%TO.P,SW34,2,2*%
%TO.N,Net-(D34-A)*%
X193446576Y-85380666D03*
%TD*%
%TO.P,SW11,2,2*%
%TO.N,Net-(D11-A)*%
X32699257Y-42413765D03*
%TO.P,SW11,1,1*%
%TO.N,/D7*%
X26349255Y-44953765D03*
%TD*%
%TO.P,SW20,2,2*%
%TO.N,Net-(D20-A)*%
X242249257Y-42413770D03*
%TO.P,SW20,1,1*%
%TO.N,/B1*%
X235899255Y-44953770D03*
%TD*%
%TO.P,SW3,2,2*%
%TO.N,Net-(D3-A)*%
X76137978Y-26904896D03*
%TO.P,SW3,1,1*%
%TO.N,/D4*%
X69557259Y-28767226D03*
%TD*%
%TO.P,SW12,2,2*%
%TO.N,Net-(D12-A)*%
X55201068Y-43859272D03*
%TO.P,SW12,1,1*%
%TO.N,/C6*%
X48620349Y-45721602D03*
%TD*%
%TO.P,SW16,2,2*%
%TO.N,Net-(D16-A)*%
X162882689Y-49302066D03*
%TO.P,SW16,1,1*%
%TO.N,/F4*%
X156832976Y-52491908D03*
%TD*%
D11*
%TO.P,D2,2,A*%
%TO.N,Net-(D2-A)*%
X57297655Y-29228251D03*
%TO.P,D2,1,K*%
%TO.N,/E6*%
X56952709Y-32510179D03*
%TD*%
D10*
%TO.P,SW9,2,2*%
%TO.N,Net-(D9-A)*%
X217728346Y-24382623D03*
%TO.P,SW9,1,1*%
%TO.N,/F7*%
X211678633Y-27572465D03*
%TD*%
D12*
%TO.P,D27,2,A*%
%TO.N,Net-(D27-A)*%
X184819678Y-70454882D03*
%TO.P,D27,1,K*%
%TO.N,/B2*%
X185164626Y-73736808D03*
%TD*%
D10*
%TO.P,SW2,2,2*%
%TO.N,Net-(D2-A)*%
X57192337Y-24913628D03*
%TO.P,SW2,1,1*%
%TO.N,/C6*%
X50611618Y-26775958D03*
%TD*%
%TO.P,SW27,2,2*%
%TO.N,Net-(D27-A)*%
X183819599Y-66256442D03*
%TO.P,SW27,1,1*%
%TO.N,/F5*%
X177769886Y-69446284D03*
%TD*%
D14*
%TO.P,D30,2,A*%
%TO.N,Net-(D30-A)*%
X242804999Y-65743749D03*
%TO.P,D30,1,K*%
%TO.N,/B2*%
X242804999Y-69043749D03*
%TD*%
D10*
%TO.P,SW30,2,2*%
%TO.N,Net-(D30-A)*%
X242249256Y-61463768D03*
%TO.P,SW30,1,1*%
%TO.N,/B1*%
X235899254Y-64003768D03*
%TD*%
D11*
%TO.P,D5,2,A*%
%TO.N,Net-(D5-A)*%
X114134582Y-35202053D03*
%TO.P,D5,1,K*%
%TO.N,/E6*%
X113789636Y-38483981D03*
%TD*%
D17*
%TO.P,D34,1,K*%
%TO.N,/B6*%
X195310129Y-92748991D03*
%TO.P,D34,2,A*%
%TO.N,Net-(D34-A)*%
X194737089Y-89499125D03*
%TD*%
D11*
%TO.P,D3,2,A*%
%TO.N,Net-(D3-A)*%
X76243299Y-31219518D03*
%TO.P,D3,1,K*%
%TO.N,/E6*%
X75898353Y-34501446D03*
%TD*%
%TO.P,D14,2,A*%
%TO.N,Net-(D14-A)*%
X93197674Y-52156426D03*
%TO.P,D14,1,K*%
%TO.N,/B3*%
X92852728Y-55438354D03*
%TD*%
%TO.P,D22,2,A*%
%TO.N,Net-(D22-A)*%
X53315121Y-67119536D03*
%TO.P,D22,1,K*%
%TO.N,/B2*%
X52970175Y-70401464D03*
%TD*%
D12*
%TO.P,D28,2,A*%
%TO.N,Net-(D28-A)*%
X203765318Y-68463617D03*
%TO.P,D28,1,K*%
%TO.N,/B2*%
X204110266Y-71745543D03*
%TD*%
%TO.P,D26,2,A*%
%TO.N,Net-(D26-A)*%
X165874033Y-72446153D03*
%TO.P,D26,1,K*%
%TO.N,/B2*%
X166218981Y-75728079D03*
%TD*%
%TO.P,D9,2,A*%
%TO.N,Net-(D9-A)*%
X218728425Y-28581066D03*
%TO.P,D9,1,K*%
%TO.N,/E6*%
X219073373Y-31862992D03*
%TD*%
%TO.P,D8,2,A*%
%TO.N,Net-(D8-A)*%
X199782785Y-30572333D03*
%TO.P,D8,1,K*%
%TO.N,/E6*%
X200127733Y-33854259D03*
%TD*%
D13*
%TO.P,D31,2,A*%
%TO.N,Net-(D31-A)*%
X81228845Y-90574262D03*
%TO.P,D31,1,K*%
%TO.N,/B6*%
X80655807Y-93824128D03*
%TD*%
D12*
%TO.P,D6,2,A*%
%TO.N,Net-(D6-A)*%
X161891500Y-34554866D03*
%TO.P,D6,1,K*%
%TO.N,/E6*%
X162236448Y-37836792D03*
%TD*%
D18*
%TO.N,/E6*%
X119120161Y-49667298D03*
%TO.N,/B6*%
X154453315Y-99953142D03*
%TO.N,/B2*%
X157586264Y-81543220D03*
%TO.N,/B3*%
X153702287Y-61715588D03*
%TO.N,/B1*%
X153639585Y-44377161D03*
X231709554Y-36171677D03*
%TO.N,/F7*%
X153063928Y-43683534D03*
X208259893Y-37882204D03*
%TO.N,/F6*%
X188788320Y-39174618D03*
X152488271Y-42989907D03*
%TO.N,/F5*%
X170311269Y-40362503D03*
X151975539Y-42289666D03*
%TO.N,/D7*%
X30855592Y-35614154D03*
X108925561Y-43819638D03*
%TO.N,/C6*%
X54580016Y-37102183D03*
X109268054Y-42874694D03*
%TO.N,/D4*%
X72808437Y-38263936D03*
X109599336Y-42146506D03*
%TO.N,/D0*%
X92280010Y-39556349D03*
X109913418Y-41410737D03*
%TD*%
D19*
%TO.N,/B3*%
X155830929Y-89143337D02*
X150165895Y-94808371D01*
X153034794Y-62539876D02*
X155830929Y-89143337D01*
X153702287Y-61715588D02*
X153034794Y-62539876D01*
X150165895Y-94808371D02*
X148845895Y-96438435D01*
X147623353Y-97660977D02*
X118881089Y-97660977D01*
%TO.N,/E6*%
X117545675Y-43122302D02*
X117117676Y-47194435D01*
X117117676Y-47194435D02*
X112779745Y-88467093D01*
X119120161Y-49667298D02*
X117117676Y-47194435D01*
%TO.N,Net-(D25-A)*%
X110152048Y-73093336D02*
X110541337Y-69389502D01*
X110541337Y-69389502D02*
X110046732Y-68778716D01*
%TO.N,/B3*%
X54961442Y-51455823D02*
X41156886Y-50004906D01*
%TO.N,/E6*%
X56952709Y-32510179D02*
X42169480Y-30956399D01*
X42169480Y-30956399D02*
X42159237Y-30943750D01*
X219073370Y-31862992D02*
X227898945Y-30935386D01*
X227898945Y-30935386D02*
X227909273Y-30943750D01*
%TO.N,/B3*%
X242805000Y-49993746D02*
X228888902Y-49993748D01*
X221064640Y-50808634D02*
X228880730Y-49987130D01*
%TO.N,/B2*%
X242804999Y-69043750D02*
X229885629Y-69043750D01*
X223055904Y-69754275D02*
X229877642Y-69037282D01*
%TO.N,/E6*%
X242805000Y-30943750D02*
X227909273Y-30943750D01*
X227909273Y-30943750D02*
X227909255Y-30943768D01*
%TO.N,/B6*%
X167169248Y-97710982D02*
X154453315Y-99953142D01*
%TO.N,/B3*%
X157089536Y-57532687D02*
X153702287Y-61715588D01*
X164227711Y-56782433D02*
X157089536Y-57532687D01*
%TO.N,/E6*%
X112779745Y-88467093D02*
X118867803Y-95985220D01*
X148639306Y-96057946D02*
X118940528Y-96057945D01*
X149828046Y-43988187D02*
X154535513Y-88776737D01*
X162236445Y-37836790D02*
X154118409Y-38690033D01*
X154118409Y-38690033D02*
X149828046Y-43988187D01*
X154535513Y-88776737D02*
X148639306Y-96057946D01*
%TO.N,/B1*%
X231709554Y-36171677D02*
X153639585Y-44377161D01*
%TO.N,/F6*%
X188788320Y-39174618D02*
X152488271Y-42989907D01*
%TO.N,/F7*%
X208259893Y-37882204D02*
X153063928Y-43683534D01*
%TO.N,/F5*%
X170311269Y-40362503D02*
X152070775Y-42279656D01*
%TO.N,/D7*%
X30855592Y-35614154D02*
X108925561Y-43819638D01*
%TO.N,/C6*%
X54580016Y-37102183D02*
X109278720Y-42851248D01*
X109277019Y-42867433D02*
X109268054Y-42874694D01*
X109278720Y-42851248D02*
X109277019Y-42867433D01*
%TO.N,/D4*%
X72808437Y-38263936D02*
X109585448Y-42129355D01*
X109585448Y-42129355D02*
X109599336Y-42146506D01*
%TO.N,/D0*%
X109912494Y-41409598D02*
X109913418Y-41410737D01*
X92280010Y-39556349D02*
X109912494Y-41409598D01*
%TO.N,/E6*%
X113789636Y-38483981D02*
X117545675Y-43122302D01*
%TO.N,/B6*%
X195310130Y-92748989D02*
X167169253Y-97710985D01*
%TO.N,/B2*%
X204110262Y-71745542D02*
X223055906Y-69754273D01*
X185164622Y-73736806D02*
X204110263Y-71745540D01*
X166218979Y-75728075D02*
X185164620Y-73736808D01*
%TO.N,/B3*%
X183173354Y-54791166D02*
X164227712Y-56782432D01*
X202118996Y-52799899D02*
X201980414Y-52814462D01*
X201980413Y-52814463D02*
X183173354Y-54791166D01*
X221064639Y-50808633D02*
X202118998Y-52799896D01*
%TO.N,/E6*%
X200127729Y-33854256D02*
X219073373Y-31862989D01*
X181182089Y-35845523D02*
X183032548Y-35651031D01*
X183032549Y-35651032D02*
X200127729Y-33854256D01*
X162236445Y-37836789D02*
X181182089Y-35845523D01*
%TO.N,/B2*%
X90861461Y-74383995D02*
X109807102Y-76375262D01*
X71915817Y-72392728D02*
X90861461Y-74383995D01*
X52970177Y-70401459D02*
X71915818Y-72392725D01*
%TO.N,/B3*%
X73907084Y-53447086D02*
X73494523Y-53403723D01*
X73494524Y-53403724D02*
X54961444Y-51455819D01*
X92852728Y-55438352D02*
X73907084Y-53447086D01*
X111798368Y-57429620D02*
X92852728Y-55438352D01*
%TO.N,/E6*%
X75898354Y-34501441D02*
X56952710Y-32510175D01*
X94843993Y-36492713D02*
X94799675Y-36488051D01*
X94799670Y-36488050D02*
X75898354Y-34501441D01*
X113789638Y-38483978D02*
X94843993Y-36492713D01*
%TO.N,Net-(D33-A)*%
X166596209Y-94461119D02*
X165949502Y-90793460D01*
X165949502Y-90793460D02*
X165305696Y-90342665D01*
%TO.N,Net-(D34-A)*%
X194737091Y-89499125D02*
X194090385Y-85831466D01*
X194090385Y-85831466D02*
X193446579Y-85380669D01*
%TO.N,Net-(D31-A)*%
X81228848Y-90574264D02*
X81875555Y-86906609D01*
X81875555Y-86906609D02*
X81424756Y-86262801D01*
%TO.N,Net-(D32-A)*%
X109369729Y-95536259D02*
X110016437Y-91868605D01*
X110016437Y-91868605D02*
X109565638Y-91224797D01*
%TO.N,Net-(D26-A)*%
X165874037Y-72446152D02*
X165484746Y-68742318D01*
X165484746Y-68742318D02*
X164873954Y-68247708D01*
%TO.N,Net-(D16-A)*%
X163882771Y-53500511D02*
X163493479Y-49796677D01*
X163493479Y-49796677D02*
X162882689Y-49302067D01*
%TO.N,Net-(D6-A)*%
X161891501Y-34554869D02*
X161502211Y-30851034D01*
X161502211Y-30851034D02*
X160891421Y-30356425D01*
%TO.N,Net-(D7-A)*%
X180837143Y-32563601D02*
X180447854Y-28859766D01*
X180447854Y-28859766D02*
X179837064Y-28365157D01*
%TO.N,Net-(D17-A)*%
X182828412Y-51509243D02*
X182439120Y-47805411D01*
X182439120Y-47805411D02*
X181828332Y-47310799D01*
%TO.N,Net-(D27-A)*%
X184819681Y-70454886D02*
X184430390Y-66751053D01*
X184430390Y-66751053D02*
X183819598Y-66256443D01*
%TO.N,Net-(D28-A)*%
X203765322Y-68463618D02*
X203376030Y-64759783D01*
X203376030Y-64759783D02*
X202765240Y-64265174D01*
%TO.N,Net-(D18-A)*%
X201774052Y-49517977D02*
X201384765Y-45814141D01*
X201384765Y-45814141D02*
X200773973Y-45319532D01*
%TO.N,Net-(D8-A)*%
X199782785Y-30572335D02*
X199393497Y-26868503D01*
X199393497Y-26868503D02*
X198782707Y-26373892D01*
%TO.N,Net-(D9-A)*%
X218728426Y-28581070D02*
X218339137Y-24877233D01*
X218339137Y-24877233D02*
X217728348Y-24382623D01*
%TO.N,Net-(D19-A)*%
X220719696Y-47526710D02*
X220330406Y-43822867D01*
X220330406Y-43822867D02*
X219719615Y-43328264D01*
%TO.N,Net-(D29-A)*%
X222710962Y-66472352D02*
X222321674Y-62768518D01*
X222321674Y-62768518D02*
X221710882Y-62273905D01*
%TO.N,Net-(D2-A)*%
X57297656Y-29228259D02*
X57686942Y-25524419D01*
X57686942Y-25524419D02*
X57192334Y-24913627D01*
%TO.N,Net-(D3-A)*%
X76243297Y-31219522D02*
X76632586Y-27515687D01*
X76632586Y-27515687D02*
X76137976Y-26904896D01*
%TO.N,Net-(D4-A)*%
X95188939Y-33210790D02*
X95578227Y-29506957D01*
X95578227Y-29506957D02*
X95083617Y-28896164D01*
%TO.N,Net-(D5-A)*%
X114134581Y-35202057D02*
X114523872Y-31498221D01*
X114523872Y-31498221D02*
X114029261Y-30887427D01*
%TO.N,Net-(D15-A)*%
X112143316Y-54147701D02*
X112532603Y-50443863D01*
X112532603Y-50443863D02*
X112037994Y-49833071D01*
%TO.N,Net-(D14-A)*%
X93197671Y-52156435D02*
X93586959Y-48452595D01*
X93586959Y-48452595D02*
X93092352Y-47841804D01*
%TO.N,Net-(D13-A)*%
X74252028Y-50165164D02*
X74641317Y-46461329D01*
X74641317Y-46461329D02*
X74146711Y-45850536D01*
%TO.N,Net-(D24-A)*%
X91206405Y-71102074D02*
X91595691Y-67398235D01*
X91595691Y-67398235D02*
X91101085Y-66787446D01*
%TO.N,Net-(D23-A)*%
X72260764Y-69110808D02*
X72650055Y-65406970D01*
X72650055Y-65406970D02*
X72155442Y-64796179D01*
%TO.N,Net-(D12-A)*%
X55306388Y-48173898D02*
X55695676Y-44470057D01*
X55695676Y-44470057D02*
X55201067Y-43859268D01*
%TO.N,Net-(D22-A)*%
X53315121Y-67119535D02*
X53704412Y-63415706D01*
X53704412Y-63415706D02*
X53209800Y-62804911D01*
%TO.N,Net-(D1-A)*%
X33255000Y-27643750D02*
X33255000Y-23919513D01*
%TO.N,Net-(D21-A)*%
X33255000Y-62019513D02*
X32699254Y-61463767D01*
%TO.N,Net-(D11-A)*%
X33255000Y-46693750D02*
X33254999Y-42969509D01*
%TO.N,Net-(D20-A)*%
X242804999Y-42969514D02*
X242249254Y-42413770D01*
%TO.N,Net-(D21-A)*%
X33255001Y-65743750D02*
X33255000Y-62019513D01*
%TO.N,Net-(D20-A)*%
X242805000Y-46693750D02*
X242804999Y-42969514D01*
%TO.N,Net-(D10-A)*%
X242804999Y-23919512D02*
X242249255Y-23363768D01*
X242805000Y-27643750D02*
X242804999Y-23919512D01*
%TO.N,Net-(D1-A)*%
X33255000Y-23919513D02*
X32699255Y-23363768D01*
%TO.N,Net-(D30-A)*%
X242805000Y-65743752D02*
X242805000Y-62019513D01*
X242805000Y-62019513D02*
X242249255Y-61463769D01*
%TO.N,Net-(D11-A)*%
X33254999Y-42969509D02*
X32699255Y-42413768D01*
%TO.N,/B3*%
X115960428Y-94080315D02*
X118896705Y-97706317D01*
X111798370Y-57429622D02*
X114664414Y-60968892D01*
X114664414Y-60968892D02*
X111732959Y-88859826D01*
%TO.N,/B6*%
X108796686Y-98786128D02*
X108977502Y-98659519D01*
X108977502Y-98659519D02*
X119562680Y-100525972D01*
X119562680Y-100525972D02*
X151151253Y-100525972D01*
X154453315Y-99953142D02*
X151159255Y-100533974D01*
X80655808Y-93824129D02*
X108796688Y-98786126D01*
%TO.N,/B3*%
X111732959Y-88859826D02*
X115960428Y-94080315D01*
X33255001Y-49993750D02*
X41147851Y-49993750D01*
%TO.N,/E6*%
X33254998Y-30943750D02*
X42159237Y-30943750D01*
%TO.N,/B3*%
X41147851Y-49993750D02*
X41159255Y-50005154D01*
%TO.N,/E6*%
X42159237Y-30943750D02*
X42159255Y-30943768D01*
%TO.N,/B2*%
X52970173Y-70401463D02*
X40169199Y-69056028D01*
X33255001Y-69043748D02*
X40159256Y-69043747D01*
X166218977Y-75728078D02*
X162014640Y-76169971D01*
X118988453Y-99364571D02*
X110699239Y-89128243D01*
X156446910Y-83045545D02*
X157126345Y-89509937D01*
X162014640Y-76169971D02*
X156446910Y-83045545D01*
X157126345Y-89509937D02*
X149116405Y-99401391D01*
X149116405Y-99401391D02*
X119025273Y-99401391D01*
X110699239Y-89128243D02*
X111888250Y-77815557D01*
X111888250Y-77815557D02*
X110807030Y-76480361D01*
X110807030Y-76480361D02*
X109807102Y-76375264D01*
X119025273Y-99401391D02*
X118988453Y-99364571D01*
X40169199Y-69056028D02*
X40159256Y-69043747D01*
%TO.N,/B6*%
X108796688Y-98786126D02*
X108796689Y-98786129D01*
X151151253Y-100525972D02*
X151159255Y-100533974D01*
%TO.N,/E6*%
X94799675Y-36488051D02*
X94799670Y-36488050D01*
X56952710Y-32510175D02*
X56952708Y-32510176D01*
%TO.N,/B3*%
X73494523Y-53403723D02*
X73494524Y-53403724D01*
%TO.N,/B2*%
X71915818Y-72392725D02*
X71915817Y-72392728D01*
X109807102Y-76375262D02*
X109807103Y-76375263D01*
%TO.N,/E6*%
X183032548Y-35651031D02*
X183032549Y-35651032D01*
%TO.N,/B3*%
X202118998Y-52799896D02*
X202118996Y-52799899D01*
X201980414Y-52814462D02*
X201980413Y-52814463D01*
%TO.N,/B2*%
X185164620Y-73736808D02*
X185164622Y-73736806D01*
X204110263Y-71745540D02*
X204110262Y-71745542D01*
%TO.N,/B6*%
X167169253Y-97710985D02*
X167169248Y-97710983D01*
%TO.N,/E6*%
X118940528Y-96057945D02*
X118867803Y-95985220D01*
%TO.N,/B2*%
X229877642Y-69037282D02*
X229885629Y-69043750D01*
%TO.N,/B3*%
X228880730Y-49987130D02*
X228888902Y-49993748D01*
X41156886Y-50004906D02*
X41147851Y-49993750D01*
X148845895Y-96438435D02*
X147623353Y-97660977D01*
%TD*%
M02*
